<svg xmlns="http://www.w3.org/2000/svg" xmlns:xlink="http://www.w3.org/1999/xlink" viewBox="0 0 350.23669 378.86772"><defs><style>.cls-1,.cls-6{fill:#fff;}.cls-1,.cls-13,.cls-16,.cls-17,.cls-2,.cls-4,.cls-5{stroke:#263238;}.cls-1,.cls-12,.cls-13,.cls-16,.cls-17,.cls-2,.cls-4,.cls-5{stroke-linecap:round;stroke-linejoin:round;}.cls-15,.cls-2,.cls-3{fill:#f0f0f0;}.cls-12,.cls-4,.cls-5{fill:none;}.cls-5{stroke-dasharray:2.94825 2.94825;}.cls-7{clip-path:url(#clip-path);}.cls-16,.cls-8{fill:#92e3a9;}.cls-15,.cls-8{opacity:0.4;}.cls-11,.cls-9{opacity:0.2;}.cls-10,.cls-13{fill:#263238;}.cls-12{stroke:#fff;}.cls-14{clip-path:url(#clip-path-2);}.cls-17{fill:#3c3c3c;}</style><clipPath id="clip-path" transform="translate(-81.47077 -69.833)"><path class="cls-1" d="M190.4539,422.0952s-11.1299,7.5734-15.6137,7.0686a2.06223,2.06223,0,0,1-1.3192-.5587c-2.9252-3.0168-5.2739-8.3144-5.2739-8.3144s1.3912-1.9337,5.6902,3.1913l2.7321-2.5069-5.6397-5.6654s3.1746-2.5212,8.5626.6857a28.73667,28.73667,0,0,1-1.0351-18.2538L165.4191,385.086l11.6287-10.1315.8961-.7799s.734.7217,1.9172,1.8413c1.1458,1.0863,2.7233,2.5389,4.4371,4.0426,4.1016,3.604,9.0617,7.5086,11.2117,7.4726C199.48929,387.4531,190.4539,422.0952,190.4539,422.0952Z"/></clipPath><clipPath id="clip-path-2" transform="translate(-81.47077 -69.833)"><path class="cls-2" d="M383.72389,294.9805s-2.8212,20.8902-17.1205,29.069c-14.1601,2.0197-30.0419-9.715-35.3975-23.8151-4.2326-11.1294-.5274-23.7608,1.4869-29.1654a.00987.00987,0,0,1,.0108-.0092C349.43169,261.5133,383.72389,294.9805,383.72389,294.9805Z"/></clipPath></defs><g id="Discount"><path class="cls-3" d="M161.8101,128.3481c-.2237-1.9082.6328-3.0815,2.4604-3.2954,1.8286-.2143,2.9326.7295,3.1563,2.6377l.7138,6.0928c.2232,1.9072-.6328,3.0825-2.4614,3.2969-1.8276.2138-2.9321-.732-3.1558-2.6392Zm2.5839,6.0079c.0962.8222.481,1.1254,1.0899,1.0542.583-.0684.9136-.4556.8174-1.2779l-.7447-6.3574c-.0962-.8213-.5078-1.1226-1.0908-1.0542-.6089.0713-.9126.4565-.8164,1.2778Zm7.2041-10.0279,1.7222-.2016-5.1401,19.4004-1.7222.2016Zm.1988,9.7251c-.2232-1.9072.6328-3.082,2.4609-3.2959,1.8276-.2138,2.9321.7305,3.1553,2.6377l.7139,6.0938c.2236,1.9072-.6329,3.082-2.4605,3.2959-1.8281.2138-2.9321-.7305-3.1558-2.6377Zm2.584,6.0083c.0962.8213.4804,1.1255,1.0898,1.0542.583-.0683.9136-.4565.8174-1.2778l-.7446-6.3584c-.0962-.8213-.5079-1.1216-1.0904-1.0532-.6093.0713-.9131.4555-.8169,1.2768Z" transform="translate(-81.47077 -69.833)"/><path class="cls-2" d="M182.4703,146.9588l-21.6489,2.5356a1.87011,1.87011,0,0,1-2.0749-1.6399l-2.6192-22.3632a2.755,2.755,0,0,1,.8024-2.2828l9.0384-8.9085a2.75542,2.75542,0,0,1,3.3624-.3938l10.8522,6.5789a2.75484,2.75484,0,0,1,1.3082,2.0356l2.6192,22.3632A1.87,1.87,0,0,1,182.4703,146.9588Z" transform="translate(-81.47077 -69.833)"/><path class="cls-2" d="M169.3633,116.7908a1.38973,1.38973,0,1,1-1.542-1.2187A1.38976,1.38976,0,0,1,169.3633,116.7908Z" transform="translate(-81.47077 -69.833)"/><path class="cls-2" d="M167.983,101.1282s4.233,16.2905,0,15.8243" transform="translate(-81.47077 -69.833)"/><path class="cls-2" d="M166.904,113.6972c.8263-4.5266,4.9774-12.156,4.9774-12.156" transform="translate(-81.47077 -69.833)"/><path class="cls-2" d="M167.983,116.9525a1.213,1.213,0,0,1-1.0782-.8771" transform="translate(-81.47077 -69.833)"/><path class="cls-4" d="M186.8742,107.1762a27.386,27.386,0,0,1,8.4379,11.6545" transform="translate(-81.47077 -69.833)"/><path class="cls-4" d="M143.0424,121.6282a27.46369,27.46369,0,0,1,41.2757-16.2855" transform="translate(-81.47077 -69.833)"/><path class="cls-4" d="M151.5865,149.236a27.34735,27.34735,0,0,1-9.1296-16.721" transform="translate(-81.47077 -69.833)"/><path class="cls-4" d="M168.5462,155.9741a27.36535,27.36535,0,0,1-14.0754-4.5428" transform="translate(-81.47077 -69.833)"/><path class="cls-4" d="M196.7879,124.5545a27.45548,27.45548,0,0,1-23.1853,31.1458" transform="translate(-81.47077 -69.833)"/></g><g id="Gift"><path class="cls-2" d="M97.95445,219.38589h35.17622a0,0,0,0,1,0,0v21.02765a1.65537,1.65537,0,0,1-1.65537,1.65537H99.60992a1.65546,1.65546,0,0,1-1.65546-1.65546V219.38589a0,0,0,0,1,0,0Z" transform="translate(-35.7052 -87.53343) rotate(10.91188)"/><path class="cls-2" d="M99.89044,212.45414h36.9615a0,0,0,0,1,0,0v5.54657a1.6554,1.6554,0,0,1-1.6554,1.6554H101.54585a1.65541,1.65541,0,0,1-1.65541-1.65541v-5.54656a0,0,0,0,1,0,0Z" transform="translate(112.23203 380.77853) rotate(-169.08804)"/><rect class="cls-2" x="113.70933" y="212.24913" width="5.02984" height="29.88489" transform="translate(-36.36434 -87.72578) rotate(10.91138)"/><path class="cls-2" d="M119.0529,212.5193s8.5622-6.2481,12.523-4.3561,2.0054,7.157.0108,6.7724" transform="translate(-81.47077 -69.833)"/><path class="cls-2" d="M122.439,213.1721s6.9696-3.4683,7.984-1.9011-2.0002,3.0547-4.3117,2.6091" transform="translate(-81.47077 -69.833)"/><path class="cls-2" d="M119.2835,212.0936s3.6182-6.5743,3.1449-8.6716l2.4144-.0047s.7858,2.4927-2.0316,6.75" transform="translate(-81.47077 -69.833)"/><path class="cls-2" d="M119.0529,212.5193s-5.6259-8.9833-10.0061-8.6994-4.5223,5.8985-2.5277,6.283" transform="translate(-81.47077 -69.833)"/><path class="cls-2" d="M115.6667,211.8665s-5.1807-5.8108-6.705-4.733.7213,3.5794,3.0328,4.025" transform="translate(-81.47077 -69.833)"/><path class="cls-2" d="M118.997,212.0384s-.9149-7.4483.3042-9.2193l-2.2396-.9019s-1.6562,2.0219-.6234,7.0215" transform="translate(-81.47077 -69.833)"/><path class="cls-4" d="M144.548,201.995a34.9707,34.9707,0,0,1,7.2179,16.8967" transform="translate(-81.47077 -69.833)"/><path class="cls-4" d="M85.8804,207.6182a35.07072,35.07072,0,0,1,56.0019-8.6282" transform="translate(-81.47077 -69.833)"/><path class="cls-4" d="M88.7266,244.4128a34.92279,34.92279,0,0,1-6.649-23.4016" transform="translate(-81.47077 -69.833)"/><path class="cls-4" d="M107.9455,257.5925a34.94675,34.94675,0,0,1-16.2467-9.6314" transform="translate(-81.47077 -69.833)"/><path class="cls-4" d="M151.9879,226.4366A35.06026,35.06026,0,0,1,114.32,258.6791" transform="translate(-81.47077 -69.833)"/></g><g id="Update"><path class="cls-2" d="M290.68129,133.0751l-2.9408-1.5044a9.209,9.209,0,0,0,.4329-4.0098c.95961.4424,1.9263.8971,2.8387,1.3325C290.95989,130.1025,290.86079,131.5302,290.68129,133.0751Z" transform="translate(-81.47077 -69.833)"/><path class="cls-2" d="M294.96439,130.8291a10.40245,10.40245,0,0,0,2.9592.99,26.747,26.747,0,0,1-2.4072,16.9388c-.75639,1.4786-8.733-2.6021-7.9765-4.0807a35.15872,35.15872,0,0,0,3.1414-11.6021c.1795-1.5449.2786-2.9726.3308-4.1817C292.67329,129.6863,294.14029,130.4075,294.96439,130.8291Z" transform="translate(-81.47077 -69.833)"/><path class="cls-2" d="M304.46419,112.2599a10.42906,10.42906,0,1,1-9.4998,18.5692c-.8241-.4216-2.2911-1.1428-3.9523-1.9357-.9124-.4354-1.87909-.8901-2.8387-1.3325-2.3001-1.0603-4.528-2.035-5.6809-2.4097L292.562,105.4684C294.69189,107.0263,302.103,111.052,304.46419,112.2599Z" transform="translate(-81.47077 -69.833)"/><path class="cls-2" d="M282.79609,96.1793a50.25161,50.25161,0,0,0,9.76591,9.2891l-10.06951,19.6828a50.25457,50.25457,0,0,0-13.2472-2.4842l-3.9072-.2036L280.34469,93.13Z" transform="translate(-81.47077 -69.833)"/><path class="cls-2" d="M260.79629,123.2936l17.5665-34.3372a1.10292,1.10292,0,0,1,1.48421-.4796l1.29929.6647a1.103,1.103,0,0,1,.4796,1.4843l-1.2812,2.5042-15.0066,29.3334-1.2787,2.4995a1.10294,1.10294,0,0,1-1.4842.4796l-1.2994-.6647A1.103,1.103,0,0,1,260.79629,123.2936Z" transform="translate(-81.47077 -69.833)"/><line class="cls-2" x1="179.84783" y1="32.0688" x2="173.07773" y2="28.6053"/><line class="cls-2" x1="187.77893" y1="21.2064" x2="183.51263" y2="13.7392"/><line class="cls-2" x1="175.68233" y1="44.8517" x2="167.13053" y2="45.7612"/><path class="cls-4" d="M313.74129,82.3592a45.181,45.181,0,0,0-21.0422-10.986" transform="translate(-81.47077 -69.833)"/><path class="cls-4" d="M300.63379,157.3638a45.30853,45.30853,0,0,0,16.7116-71.2706" transform="translate(-81.47077 -69.833)"/><path class="cls-4" d="M253.52519,150.0198a45.117,45.117,0,0,0,29.4777,10.9035" transform="translate(-81.47077 -69.833)"/><path class="cls-4" d="M238.47009,123.9475a45.14817,45.14817,0,0,0,10.7818,21.8892" transform="translate(-81.47077 -69.833)"/><path class="cls-4" d="M283.00289,70.333a45.29518,45.29518,0,0,0-45.2951,45.2952" transform="translate(-81.47077 -69.833)"/></g><g id="Heart"><path class="cls-2" d="M202.78109,188.557c-3.80209-3.3967-7.74089-1.9073-9.75829-.7136-.4051-2.3089-1.843-6.2735-6.8957-6.9533-5.4859-.7302-9.9735,4.6227-8.5039,12.0734,1.0636,5.3595,4.4871,10.2681,6.3236,12.5913.2186.2792.4239.5225.5915.7186.2581-.0002.5764-.0024.9307-.0179,2.9592-.1154,8.9144-.7065,13.66949-3.3872C205.76259,199.1436,206.90309,192.2498,202.78109,188.557Z" transform="translate(-81.47077 -69.833)"/><path class="cls-4" d="M181.4278,209.7552s-.267.498-.6295,1.3577" transform="translate(-81.47077 -69.833)"/><path class="cls-5" d="M179.8076,213.8846c-1.4618,4.9274-2.3321,13.1262,5.5175,18.1306,19.7199,12.572,26.35549-17.0849,11.2562-14.4196-10.3499,1.8269.5279,29.1329,16.71859,23.8375" transform="translate(-81.47077 -69.833)"/><path class="cls-4" d="M214.68529,240.9046q.6687-.2916,1.34771-.6595" transform="translate(-81.47077 -69.833)"/></g><g id="Character"><path class="cls-6" d="M190.4539,422.0952s-11.1299,7.5734-15.6137,7.0686a2.06223,2.06223,0,0,1-1.3192-.5587c-2.9252-3.0168-5.2739-8.3144-5.2739-8.3144s1.3912-1.9337,5.6902,3.1913l2.7321-2.5069-5.6397-5.6654s3.1746-2.5212,8.5626.6857a28.73667,28.73667,0,0,1-1.0351-18.2538L165.4191,385.086l11.6287-10.1315.8961-.7799s.734.7217,1.9172,1.8413c1.1458,1.0863,2.7233,2.5389,4.4371,4.0426,4.1016,3.604,9.0617,7.5086,11.2117,7.4726C199.48929,387.4531,190.4539,422.0952,190.4539,422.0952Z" transform="translate(-81.47077 -69.833)"/><g class="cls-7"><path class="cls-8" d="M181.8476,417.1318s-6.3403,6.538-7.0074,12.032a2.06223,2.06223,0,0,1-1.3192-.5587c-2.9252-3.0168-5.2739-8.3144-5.2739-8.3144s1.3912-1.9337,5.6902,3.1913l2.7321-2.5069-5.6397-5.6654s3.1746-2.5212,8.5626.6857a28.73667,28.73667,0,0,1-1.0351-18.2538L165.4191,385.086l11.6287-10.1315,2.8133,1.0614c1.1458,1.0863,2.7233,2.5389,4.4371,4.0426-2.4606,3.6126-7.7319,11.0702-7.7319,11.0702l4.5545,6.1791S178.3601,412.8854,181.8476,417.1318Z" transform="translate(-81.47077 -69.833)"/></g><path class="cls-4" d="M190.4539,422.0952s-11.1299,7.5734-15.6137,7.0686a2.06223,2.06223,0,0,1-1.3192-.5587c-2.9252-3.0168-5.2739-8.3144-5.2739-8.3144s1.3912-1.9337,5.6902,3.1913l2.7321-2.5069-5.6397-5.6654s3.1746-2.5212,8.5626.6857a28.73667,28.73667,0,0,1-1.0351-18.2538L165.4191,385.086l11.6287-10.1315.8961-.7799s.734.7217,1.9172,1.8413c1.1458,1.0863,2.7233,2.5389,4.4371,4.0426,4.1016,3.604,9.0617,7.5086,11.2117,7.4726C199.48929,387.4531,190.4539,422.0952,190.4539,422.0952Z" transform="translate(-81.47077 -69.833)"/><path class="cls-4" d="M176.6703,420.9784a13.93752,13.93752,0,0,1,2.9343-4.9742" transform="translate(-81.47077 -69.833)"/><path class="cls-3" d="M384.373,333.911a31.52183,31.52183,0,0,1-6.30081,6.792.00975.00975,0,0,0-.0107.0092c-20.4699,16.9478-67.6632,25.3231-67.6632,25.3231s-1.5771,2.37-4.0084,5.7442c-4.36489,6.0564-11.5117,15.3582-17.3385,20.0216l-.01-.0008c-2.4583,1.9774-4.6882,3.1205-6.3688,2.8134l8.85041,32.7042,3.96309,14.1976s-40.6915,17.7527-110.29569-2.5512c0,0-.7869-9.0836-.198-11.0223.0273-.088.0553-.1861.0933-.2834a12.8149,12.8149,0,0,1,2.7268-3.4304s-.3882-5.8406-.5873-11.7862a79.58914,79.58914,0,0,1,.1417-11.376c.4946-2.9997,2.6887-10.2458,3.7909-13.8083.3935-1.2623.6493-2.0642.6493-2.0642l-3.4644-32.4371-.9967-9.3415s-.0161-.1718-.0508-.4856c-.0043-.0706-.0086-.1412-.0212-.2325l-.546-5.0107-17.9017,5.4681s.9536,2.0941,2.2294,5.0371c2.3521,5.3781,5.8097,13.5751,6.5795,16.8182a6.99668,6.99668,0,0,0,.2275.7809c1.6624,4.7302,7.9653,9.0248,7.9653,9.0248l-16.9504,19.8123-5.0131-3.4976a15.47743,15.47743,0,0,1-2.0196,1.2706,18.46626,18.46626,0,0,1-17.761.4029,26.42136,26.42136,0,0,1-8.3771-7.4128c-13.3628-17.2991-19.1004-31.3901-17.2213-47.9724,1.88-16.5922,76.3456-67.5988,91.12139-67.0703l21.9789,4.856c.4734-.393,1.76021-1.4121,2.7493-1.3618,3.9966.2043,4.1008,4.848,4.1008,4.848l49.2543,7.9954s5.1037-2.555,5.9932-2.5129a3.84094,3.84094,0,0,1,3.11,1.9785s12.7608-7.6417,16.8703-5.863C327.15649,286.11,394.343,318.7587,384.373,333.911Z" transform="translate(-81.47077 -69.833)"/><path class="cls-9" d="M213.26489,414.8589a36.78137,36.78137,0,0,1-21.31639,11.5615c-2.5918.4115-4.873.828-6.8628,1.2382a12.8149,12.8149,0,0,1,2.7268-3.4304s-.3882-5.8406-.5873-11.7862C193.008,416.2227,203.07459,420.6225,213.26489,414.8589Z" transform="translate(-81.47077 -69.833)"/><path class="cls-9" d="M191.1578,387.2577c.3935-1.2623.6493-2.0642.6493-2.0642l-3.4644-32.4371c5.1758,7.4235,23.63759,32.7219,36.3683,35.4519C238.01409,391.0551,202.43939,396.0904,191.1578,387.2577Z" transform="translate(-81.47077 -69.833)"/><path class="cls-9" d="M291.523,427.3179c-13.89771-1.5807-33.55851-5.0846-35.52591-12.3579-3.0596-11.365,11.8414-18.1806,33.0443-23.1597-2.4583,1.9774-4.6882,3.1205-6.3688,2.8134Z" transform="translate(-81.47077 -69.833)"/><path class="cls-9" d="M378.06149,340.7122c-20.4699,16.9478-67.6632,25.3231-67.6632,25.3231s-1.5771,2.37-4.0084,5.7442a78.66871,78.66871,0,0,1-3.0145-52.2959s3.6373,19.6893,18.7281,24.3668c0,0-11.5511-8.6038-7.5204-29.3153,0,0,3.9384,24.379,29.5876,31.1085C356.64679,348.9147,368.83039,345.2896,378.06149,340.7122Z" transform="translate(-81.47077 -69.833)"/><path class="cls-9" d="M187.2952,342.9293l-.5672-5.2432-17.9017,5.4681s.9536,2.0941,2.2294,5.0371c-6.8452-.7067-19.8329,5.6523-22.0994-1.274-2.732-8.3587,14.0798-5.4777,14.0798-5.4777l15.8593-9.2259c-3.0011-12.8251,4.635-22.4684,4.635-22.4684l1.4502,8.9469c.6955-17.0114,7.3483-26.3156,7.3483-26.3156C186.7945,305.8291,186.9473,338.9379,187.2952,342.9293Z" transform="translate(-81.47077 -69.833)"/><path class="cls-9" d="M185.828,374.8152l-16.9504,19.8123-5.0131-3.4976a15.47743,15.47743,0,0,1-2.0196,1.2706,18.46626,18.46626,0,0,1-17.761.4029c5.4936-7.6,16.837-18.7881,30.3413-23.1085a136.03845,136.03845,0,0,0-9.0061,15.3911l3.4834,3.4334S177.5935,378.6108,185.828,374.8152Z" transform="translate(-81.47077 -69.833)"/><path class="cls-9" d="M227.00329,287.5536c-.0051,1.744-1.1035,21.5682,13.3155,26.8057s27.2414-3.6452,27.2414-3.6452-22.1163,21.3273-35.5713,9.9296S227.00329,287.5536,227.00329,287.5536Z" transform="translate(-81.47077 -69.833)"/><path class="cls-4" d="M185.1901,438.9604s-.7821-9.0834-.2023-11.0183c.4857-1.6208,2.8209-3.7122,2.8209-3.7122s-1.2242-18.4136-.4403-23.1599c.6718-4.0674,4.4417-15.8804,4.4417-15.8804l-5.0795-47.5041-17.9024,5.4722s7.6222,16.8379,8.8021,21.8554,8.1998,9.8053,8.1998,9.8053l-16.9566,19.8069-5.0084-3.4915S149.071,402.7,135.7067,385.3941s-19.0994-31.3925-17.2223-47.9796,76.3518-67.5962,91.127-67.071l21.9754,4.8587c.4763-.3913,1.7606-1.41,2.7488-1.3596,3.9967.204,4.101,4.8489,4.101,4.8489l49.2495,7.9946s5.1121-2.5549,5.9996-2.5106a3.84654,3.84654,0,0,1,3.1109,1.972s12.7552-7.6367,16.871-5.8609c13.487,5.8191,80.6723,38.4724,70.70441,53.6239-14.15011,21.5086-73.97051,32.1214-73.97051,32.1214s-19.8973,30.0054-27.7328,28.5769l12.8157,46.9083" transform="translate(-81.47077 -69.833)"/><path class="cls-2" d="M332.32559,337.1946c22.6012,14.931,40.8191,12.166,55.0811-7.0439,0,0,11.8715-15.3035,11.0307-31.8176s-4.7847-70.3655-56.23839-56.5958c-8.46751,2.266-28.23381,28.7366-29.89961,36.0102-.7613,3.3244-8.6956,20.2473-16.3969,37.7631" transform="translate(-81.47077 -69.833)"/><path class="cls-10" d="M271.17429,179.0207s14.3941-2.1846,24.4012,6.7722c12.6489,11.3215,26.8469,41.8402,6.6208,92.4232,0,0-29.8747-19.8364-80.8646-6.5708,0,0,4.39-11.8666-3.3168-49.2142C214.53029,205.5447,223.29149,166.6106,271.17429,179.0207Z" transform="translate(-81.47077 -69.833)"/><path class="cls-1" d="M249.34269,305.9485c21.3101,3.4544,43.9564-20.1351,43.9564-20.1351s-11.5876-1.4285-12.6248-6.8683c-3.3245-17.1609,10.0454-38.3582,10.0454-38.3582s-51.7434,1.4319-42.6953,13.1405a29.50207,29.50207,0,0,1,4.0925,7.0177c3.1375,7.7078.961,13.5232-.7085,14.9417a2.31851,2.31851,0,0,1-.3762.2504c-3.1311,1.431-15.9911-.7001-15.9911-.7001S229.89929,302.7956,249.34269,305.9485Z" transform="translate(-81.47077 -69.833)"/><path class="cls-4" d="M285.96189,292.3444s-9.8251,3.9314-24.2204,2.7617l-6.48449,3.1771" transform="translate(-81.47077 -69.833)"/><path class="cls-4" d="M248.80389,297.7588l-.4756-4.2555s-10.6124-3.3241-13.8979-9.6352" transform="translate(-81.47077 -69.833)"/><path class="cls-10" d="M251.40839,275.6868c15.84661,4.1424,23.2875-16.1812,23.2875-16.1812s-12.6772-3.7797-22.579,1.2395C255.25439,268.4529,253.07789,274.2683,251.40839,275.6868Z" transform="translate(-81.47077 -69.833)"/><path class="cls-1" d="M291.63429,229.8956c3.8552-21.6391-.4304-47.6077-33.3645-45.4564-23.5302,1.537-23.3366,27.336-21.7791,35.0361,2.6195,12.9511-1.1345,18.0515,2.9002,28.9303,2.8996,7.8185,9.6379,16.561,17.5668,19.8365,4.8784,2.0153,24.62731-11.8431,26.087-18.1792" transform="translate(-81.47077 -69.833)"/><path class="cls-4" d="M250.24929,223.5159c-.19729,2.4288-.4832,8.4474-5.6278,12.8864-3.3279,2.8714,4.3118,5.8101,4.3118,5.8101" transform="translate(-81.47077 -69.833)"/><path class="cls-4" d="M244.78239,214.9305s-7.26839-3.5406-12.1789,2.3022" transform="translate(-81.47077 -69.833)"/><path class="cls-4" d="M256.97329,214.4719a24.58894,24.58894,0,0,1,15.5373.6112" transform="translate(-81.47077 -69.833)"/><path class="cls-10" d="M264.52229,224.6869c.2258,2.0877,1.6311,3.6479,3.1389,3.4848s2.5469-1.9877,2.321-4.0754-1.6311-3.6479-3.1389-3.4849S264.29639,222.5992,264.52229,224.6869Z" transform="translate(-81.47077 -69.833)"/><path class="cls-4" d="M249.29279,249.0497a41.00568,41.00568,0,0,0,16.2541-5.9366s.67811,9.0779-6.9244,10.9661c-5.8316,1.4484-8.0904-5.2076-8.0904-5.2076" transform="translate(-81.47077 -69.833)"/><path class="cls-10" d="M270.667,192.6843s-2.08361,25.642,20.55239,34.9577l10.6039-24.6476-16.042-17.7685-24.1725-6.9825c-36.1119,2.2513-51.6599,24.6935-31.6086,84.4758C230.00019,262.7192,224.393,191.517,270.667,192.6843Z" transform="translate(-81.47077 -69.833)"/><path class="cls-1" d="M286.27019,228.7305c-.3118-2.8822,6.977-10.2232,9.4445-5.5121,4.2048,8.0284,1.14131,15.0279-3.207,17.77-1.94769,1.2283-4.4153,3.528-6.1503,1.3581" transform="translate(-81.47077 -69.833)"/><path class="cls-10" d="M242.48419,225.6412c.22581,2.0877,1.6311,3.6479,3.13881,3.4848s2.54689-1.9877,2.32109-4.0754-1.63109-3.6479-3.1389-3.4848S242.25829,223.5535,242.48419,225.6412Z" transform="translate(-81.47077 -69.833)"/><g class="cls-11"><path class="cls-12" d="M226.798,221.4318q-.40666,2.61045-.56291,5.2517" transform="translate(-81.47077 -69.833)"/><path class="cls-12" d="M266.91629,188.0189c-18.2942-.4832-35.2946,11.1782-39.3415,29.4878" transform="translate(-81.47077 -69.833)"/><path class="cls-12" d="M263.64909,182.7921s-26.3802-6.2048-36.2719,11.2937" transform="translate(-81.47077 -69.833)"/><path class="cls-12" d="M285.05219,213.277a28.22785,28.22785,0,0,0,5.6873,5.9956" transform="translate(-81.47077 -69.833)"/><path class="cls-12" d="M274.58919,186.2103a71.38124,71.38124,0,0,0,8.3685,23.8423" transform="translate(-81.47077 -69.833)"/><path class="cls-12" d="M301.09619,265.5705q-.7017,3.1512-1.643,6.2427" transform="translate(-81.47077 -69.833)"/><path class="cls-12" d="M299.57119,230.7094c4.2805,9.5018,3.9861,21.3241,2.2293,31.3247" transform="translate(-81.47077 -69.833)"/><path class="cls-12" d="M296.429,247.2568a25.562,25.562,0,0,1-7.43651,19.5514" transform="translate(-81.47077 -69.833)"/><path class="cls-12" d="M284.26469,189.2698c4.489,6.0703,7.8202,12.577,13.0228,18.12,5.4768,5.8352,10.9534,12.5223,11.982,20.7434" transform="translate(-81.47077 -69.833)"/><path class="cls-12" d="M277.941,182.9611a19.9089,19.9089,0,0,1,3.52,2.9522" transform="translate(-81.47077 -69.833)"/></g><path class="cls-13" d="M368.19149,323.7671c-.5213.1182-1.0502.2057-1.5881.2824-14.1601,2.0197-30.0419-9.715-35.3975-23.8151-4.2326-11.1294-.5274-23.7608,1.4869-29.1654.6393-1.6938,1.1007-2.6797,1.1007-2.6797,8.536-12.1987,58.1867,11.6609,58.7636,24.8108C393.13479,306.34,382.737,320.5847,368.19149,323.7671Z" transform="translate(-81.47077 -69.833)"/><path class="cls-3" d="M383.72389,294.9805s-2.8212,20.8902-17.1205,29.069c-14.1601,2.0197-30.0419-9.715-35.3975-23.8151-4.2326-11.1294-.5274-23.7608,1.4869-29.1654a.00987.00987,0,0,1,.0108-.0092C349.43169,261.5133,383.72389,294.9805,383.72389,294.9805Z" transform="translate(-81.47077 -69.833)"/><g class="cls-14"><path class="cls-15" d="M383.72389,294.9805s-2.8212,20.8902-17.1205,29.069c-14.1601,2.0197-30.0419-9.715-35.3975-23.8151-4.2326-11.1294-.5274-23.7608,1.4869-29.1654a.00987.00987,0,0,1,.0108-.0092C349.43169,261.5133,383.72389,294.9805,383.72389,294.9805Z" transform="translate(-81.47077 -69.833)"/></g><path class="cls-4" d="M383.72389,294.9805s-2.8212,20.8902-17.1205,29.069c-14.1601,2.0197-30.0419-9.715-35.3975-23.8151-4.2326-11.1294-.5274-23.7608,1.4869-29.1654a.00987.00987,0,0,1,.0108-.0092C349.43169,261.5133,383.72389,294.9805,383.72389,294.9805Z" transform="translate(-81.47077 -69.833)"/><path class="cls-4" d="M325.18159,305.9825s16.1207,23.1399,34.9457,25.0664,30.8645-13.9304,31.6472-25.8896" transform="translate(-81.47077 -69.833)"/><path class="cls-1" d="M316.11219,201.532c1.4191-3.967,11.5884-2.6358,14.8114,9.7305s15.9465,42.4041,15.9465,42.4041,50.5292-74.3561,59.59391-77.2221,5.47269,10.0181-6.62951,27.8962c0,0,11.3357-1.9958,14.311.0088s1.5277,14.0082,3.1126,18.2174c2.6562,7.0546-3.2484,8.5446-3.2484,8.5446a12.59542,12.59542,0,0,1,7.8925,3c3.2456,3.0416,1.6176,15.6189,2.5445,19.1751s-5.26869,6.5635-5.26869,6.5635,14.89889,8.126,11.53489,10.1594c-5.672,3.4284-8.90889-.0834-8.90889-.0834s-22.88771,28.7518-40.15141,35.15-50.8762-19.0429-54.4883-32.9024.6988-13.0048-2.041-36.0666S316.11219,201.532,316.11219,201.532Z" transform="translate(-81.47077 -69.833)"/><path class="cls-1" d="M338.99481,162.38429h68.79307a4.424,4.424,0,0,1,4.424,4.424V291.56974a4.424,4.424,0,0,1-4.424,4.424H338.99476a4.424,4.424,0,0,1-4.424-4.424V166.80832A4.424,4.424,0,0,1,338.99481,162.38429Z" transform="translate(-127.202 31.74347) rotate(-14.60755)"/><path class="cls-16" d="M351.68969,169.7171a1.08322,1.08322,0,1,1-1.3214-.775A1.08322,1.08322,0,0,1,351.68969,169.7171Z" transform="translate(-81.47077 -69.833)"/><path class="cls-16" d="M365.40109,166.1436a.679.679,0,1,1-.8284-.4859A.67905.67905,0,0,1,365.40109,166.1436Z" transform="translate(-81.47077 -69.833)"/><path class="cls-16" d="M353.61316,167.75734h8.25215a.31787.31787,0,0,1,.31787.31787v.13047a.31787.31787,0,0,1-.31787.31787h-8.25224a.31779.31779,0,0,1-.31779-.31779v-.13055a.31787.31787,0,0,1,.31787-.31787Z" transform="matrix(0.96768, -0.25219, 0.25219, 0.96768, -112.31113, 25.81976)"/><path class="cls-2" d="M393.22029,160.251l31.2073,119.7417a2.61856,2.61856,0,0,1-1.8735,3.1943l-65.7158,17.1269a2.61841,2.61841,0,0,1-3.1942-1.8735l-31.2073-119.7416a2.61852,2.61852,0,0,1,1.8735-3.1943l13.4912-3.5161a2.19726,2.19726,0,0,1,2.3533.8649l.9747,1.3903a2.19733,2.19733,0,0,0,2.3532.8649l29.6164-7.7187a2.19727,2.19727,0,0,0,1.6318-1.9035l.17211-1.6891a2.19715,2.19715,0,0,1,1.63179-1.9035l13.4913-3.5162A2.61849,2.61849,0,0,1,393.22029,160.251Z" transform="translate(-81.47077 -69.833)"/><circle class="cls-17" cx="370.06277" cy="216.41742" r="27.76173" transform="translate(-57.32474 399.81271) rotate(-66.52563)"/><path class="cls-2" d="M358.577,232.3385a2.45943,2.45943,0,0,0,2.98209,1.3818l9.1215-2.635a3.781,3.781,0,1,0,7.1677-2.0705l9.1215-2.635a2.45925,2.45925,0,0,0,1.7858-2.7591,2.39039,2.39039,0,0,0-3.0137-1.8614l-.7733-.4644a7.66563,7.66563,0,0,1-3.4188-4.4447l-1.7354-6.0077a10.65609,10.65609,0,0,0-11.761-7.5837,2.89151,2.89151,0,1,0-2.8211.8149,10.656,10.656,0,0,0-5.90529,12.687l1.75479,6.0746a7.66615,7.66615,0,0,1-.9479,6.3215h0A2.39036,2.39036,0,0,0,358.577,232.3385Zm9.00089-31.5219a1.68914,1.68914,0,1,1-2.0916-1.1541A1.68914,1.68914,0,0,1,367.57789,200.8166Z" transform="translate(-81.47077 -69.833)"/><line class="cls-2" x1="294.71723" y1="159.3314" x2="290.69413" y2="160.4935"/><line class="cls-2" x1="300.67303" y1="152.8881" x2="282.21983" y2="158.2187"/><path class="cls-10" d="M401.42869,260.0101,363.964,269.7742a8.40363,8.40363,0,0,1-10.25141-6.0126h0a8.4037,8.4037,0,0,1,6.0126-10.2514L397.19,243.7461a8.40362,8.40362,0,0,1,10.25139,6.0126h0A8.40369,8.40369,0,0,1,401.42869,260.0101Z" transform="translate(-81.47077 -69.833)"/><path class="cls-6" d="M359.83889,258.0781a2.0996,2.0996,0,0,1,2.6777-.6982,2.16,2.16,0,0,1,.8291,1.3252l.0635.2431-1.1504.2998-.084-.3203a.91855.91855,0,0,0-.3057-.54.67659.67659,0,0,0-.9072.2363.922.922,0,0,0-.00389.6201,1.48463,1.48463,0,0,0,.48239.7852,5.5234,5.5234,0,0,0,.9961.626,9.7863,9.7863,0,0,1,.8799.5205,2.98458,2.98458,0,0,1,.6455.6172,2.53638,2.53638,0,0,1,.4444.9365,2.1259,2.1259,0,0,1-.0879,1.5644,2.13147,2.13147,0,0,1-2.6993.7032,2.11866,2.11866,0,0,1-.8408-1.3223l-.125-.4756,1.1504-.2998.1445.5527q.19635.753.8272.5879.62985-.164.43461-.917a1.48283,1.48283,0,0,0-.48251-.7832,5.45839,5.45839,0,0,0-.9961-.6269,9.66637,9.66637,0,0,1-.8789-.5205,2.92113,2.92113,0,0,1-.6464-.6172,2.5313,2.5313,0,0,1-.4444-.9356A2.15549,2.15549,0,0,1,359.83889,258.0781Z" transform="translate(-81.47077 -69.833)"/><path class="cls-6" d="M366.28809,262.333q.1962.753.8262.5879.63135-.1641.4355-.916l-1.5576-5.9736,1.1504-.2999,1.5361,5.8956a2.11507,2.11507,0,0,1-.0879,1.5644,2.12812,2.12812,0,0,1-2.6992.7031,2.113,2.113,0,0,1-.8408-1.3213l-1.5371-5.8964,1.2177-.3174Z" transform="translate(-81.47077 -69.833)"/><path class="cls-6" d="M371.29389,255.1162a1.90752,1.90752,0,0,1,.7813,1.2315l.0723.2763a2.26523,2.26523,0,0,1,.06251,1.0352,1.272,1.272,0,0,1-.44141.7295q.999.11715,1.3398,1.4228l.1641.6309a1.70427,1.70427,0,0,1-1.3692,2.3174l-1.914.498-2.0176-7.7432,1.8359-.4785A1.92481,1.92481,0,0,1,371.29389,255.1162Zm-1.2832,3.2344.4747-.124a.75385.75385,0,0,0,.499-.3311.921.921,0,0,0,.0185-.6777l-.1123-.4317a1.01368,1.01368,0,0,0-.30859-.5693.58137.58137,0,0,0-.51851-.0654l-.586.1523Zm.9082,3.4844.6963-.1817a.62771.62771,0,0,0,.4307-.2949.909.909,0,0,0,.001-.6328l-.1758-.6748a1.16564,1.16564,0,0,0-.374-.6875.79911.79911,0,0,0-.6563-.0479l-.542.1416Z" transform="translate(-81.47077 -69.833)"/><path class="cls-6" d="M372.87009,254.6816a2.09609,2.09609,0,0,1,2.6758-.6972,2.14705,2.14705,0,0,1,.83011,1.3252l.06349.2431-1.1504.2998-.083-.3212a.9144.9144,0,0,0-.3067-.5401.6759.6759,0,0,0-.9062.2363.91313.91313,0,0,0-.0039.6211,1.47105,1.47105,0,0,0,.4814.7842,5.50481,5.50481,0,0,0,.9971.626,10.162,10.162,0,0,1,.8789.5205,2.92449,2.92449,0,0,1,.6455.6182,2.52193,2.52193,0,0,1,.4443.9355,2.11534,2.11534,0,0,1-.0879,1.5645,2.13111,2.13111,0,0,1-2.6992.7031,2.1134,2.1134,0,0,1-.8408-1.3213l-.124-.4766,1.15041-.2998.14449.5528q.19635.75285.8262.5888c.4199-.1093.5654-.416.4345-.917a1.4795,1.4795,0,0,0-.4814-.7841,5.501,5.501,0,0,0-.9971-.627,9.55923,9.55923,0,0,1-.8789-.5205,2.89643,2.89643,0,0,1-.6455-.6172,2.517,2.517,0,0,1-.44529-.9355A2.151,2.151,0,0,1,372.87009,254.6816Z" transform="translate(-81.47077 -69.833)"/><path class="cls-6" d="M381.66309,258.2314a2.12252,2.12252,0,0,1-.0899,1.5655,2.12942,2.12942,0,0,1-2.69819.7031,2.11822,2.11822,0,0,1-.84081-1.3223l-1.0498-4.0273a2.12084,2.12084,0,0,1,.0888-1.5645,2.1296,2.1296,0,0,1,2.6983-.7031,2.11961,2.11961,0,0,1,.8418,1.3223l.1963.7519-1.1514.3008-.2158-.8301q-.1992-.7632-.8301-.5986-.62985.1641-.4316.9268l1.0898,4.1816q.19635.753.8262.5879.63135-.1641.4355-.916l-.289-1.1065,1.1513-.2998Z" transform="translate(-81.47077 -69.833)"/><path class="cls-6" d="M385.251,258.9033a5.80747,5.80747,0,0,1-.17781-.5918l-.3173-1.2168a1.22659,1.22659,0,0,0-.3858-.709.77452.77452,0,0,0-.667-.0683l-.4199.1094.8213,3.1523-1.2168.3174-2.0186-7.7432,1.837-.4785a1.6091,1.6091,0,0,1,2.2675,1.3106l.1582.6093a1.60853,1.60853,0,0,1-.3877,1.7783,1.15755,1.15755,0,0,1,.7745.4307,2.65449,2.65449,0,0,1,.4628,1.0068l.31161,1.1954a5.5417,5.5417,0,0,0,.16209.5302,1.36726,1.36726,0,0,0,.2158.375l-1.2383.3223A1.77377,1.77377,0,0,1,385.251,258.9033Zm-2.25591-3.582.4746-.124a.75631.75631,0,0,0,.4991-.3311.92146.92146,0,0,0,.0185-.6777l-.1992-.7637a1.008,1.008,0,0,0-.3086-.5693.58134.58134,0,0,0-.5186-.0655l-.58589.1524Z" transform="translate(-81.47077 -69.833)"/><path class="cls-6" d="M386.53319,250.6777l2.0186,7.7432-1.21679.3174-2.01861-7.7432Z" transform="translate(-81.47077 -69.833)"/><path class="cls-6" d="M390.73929,250.0479a1.90439,1.90439,0,0,1,.7822,1.2314l.0723.2764a2.27922,2.27922,0,0,1,.0625,1.0351,1.26844,1.26844,0,0,1-.4415.7295q.99915.11865,1.3389,1.4229l.1651.6308a1.70443,1.70443,0,0,1-1.3682,2.3174l-1.9141.499-2.01849-7.7431,1.83589-.4785A1.92219,1.92219,0,0,1,390.73929,250.0479Zm-1.28229,3.2343.47459-.124a.75009.75009,0,0,0,.4991-.3311.916.916,0,0,0,.0185-.6777l-.1123-.4306a1.01,1.01,0,0,0-.3086-.5694.58243.58243,0,0,0-.5195-.0664l-.5859.1524Zm.90819,3.4844.6963-.1816a.63179.63179,0,0,0,.4317-.295.919.919,0,0,0,0-.6318l-.1758-.6748a1.15009,1.15009,0,0,0-.375-.6885.79589.79589,0,0,0-.6553-.0478l-.542.1416Z" transform="translate(-81.47077 -69.833)"/><path class="cls-6" d="M395.64649,251.7871l.2881,1.1065-1.67.4355.5909,2.2676,2.10151-.5479.28809,1.1065-3.3183.8642-2.0186-7.7431,3.3193-.8643.2881,1.1055-2.1015.5478.5625,2.1573Z" transform="translate(-81.47077 -69.833)"/><path class="cls-6" d="M397.90429,247.7139a1.83739,1.83739,0,0,1,1.4883.1318,2.09989,2.09989,0,0,1,.8252,1.3086l1.0205,3.916a2.09726,2.09726,0,0,1-.0811,1.5459,1.83355,1.83355,0,0,1-1.2343.8408l-1.9258.502-2.0176-7.7432Zm1.0225,6.8213.6855-.1788a.60765.60765,0,0,0,.4131-.2968.87978.87978,0,0,0,.0107-.6162l-1.0498-4.0264a.87706.87706,0,0,0-.3105-.5342.60831.60831,0,0,0-.5049-.0576l-.6855.1787Z" transform="translate(-81.47077 -69.833)"/><path class="cls-4" d="M310.40149,366.0319a112.07982,112.07982,0,0,1-5.5686-58.5276" transform="translate(-81.47077 -69.833)"/><path class="cls-4" d="M282.66869,394.6088s-22.9775,7.0252-25.3086,12.3133,10.3056.8374,10.3056.8374" transform="translate(-81.47077 -69.833)"/><path class="cls-4" d="M296.79659,286.1475s-21.1608,20.9688-35.3172,26.566" transform="translate(-81.47077 -69.833)"/><path class="cls-4" d="M227.46149,280.5135s-3.8534,28.3119,10.535,33.6571" transform="translate(-81.47077 -69.833)"/><path class="cls-4" d="M186.7306,337.6855s-.117-37.1214,7.2565-48.5978" transform="translate(-81.47077 -69.833)"/><path class="cls-4" d="M183.9823,299.8673s-2.0741,23.0506,2.575,30.5727" transform="translate(-81.47077 -69.833)"/><path class="cls-4" d="M168.8282,343.1577s-16.0936-5.5433-19.4305,1.3299,9.5979.7799,9.5979.7799" transform="translate(-81.47077 -69.833)"/><path class="cls-4" d="M178.5077,367.2279s-15.8049,8.9028-16.6157,13.9967" transform="translate(-81.47077 -69.833)"/><path class="cls-4" d="M204.32439,342.6002s30.2498,45.7211,46.9489,41.5213" transform="translate(-81.47077 -69.833)"/><path class="cls-4" d="M224.99409,406.7266s-23.7212,17.3888-27.17379,15.9175" transform="translate(-81.47077 -69.833)"/><path class="cls-9" d="M391.13669,332.5343c1.6018-1.3146,2.6555-2.1821,2.9988-2.4552C393.779,330.3913,392.74279,331.2903,391.13669,332.5343Z" transform="translate(-81.47077 -69.833)"/></g></svg>