<svg xmlns="http://www.w3.org/2000/svg" viewBox="0 0 443.95149 434.74521"><defs><style>.cls-1{fill:#f0f0f0;}.cls-2{opacity:0.3;}.cls-3{opacity:0.5;}.cls-4{fill:#fafafa;}.cls-5,.cls-7{fill:#263238;}.cls-10,.cls-6{fill:#fff;}.cls-7,.cls-8{stroke:#000;}.cls-10,.cls-7,.cls-8{stroke-miterlimit:10;}.cls-9{fill:#e0e0e0;}.cls-10{stroke:#fff;}.cls-11{opacity:0.6;}.cls-12{fill:#455a64;}.cls-13{fill:#eb996e;}.cls-14{fill:#3c3c3c;}.cls-15{fill:#ff725e;}.cls-16{fill:none;}</style></defs><g id="Padlock"><path class="cls-1" d="M75.8498,74.656a36.1372,36.1372,0,0,0-19.7256,47.0813l22.4012,54.7069,10.051-4.1156-22.4011-54.707A25.23426,25.23426,0,1,1,112.88,98.4972l10.0509-4.1156A36.137,36.137,0,0,0,75.8498,74.656Z" transform="translate(-29.9357 -45.42629)"/><g class="cls-2"><path d="M75.8498,74.656a36.1372,36.1372,0,0,0-19.7256,47.0813l22.4012,54.7069,10.051-4.1156-22.4011-54.707A25.23426,25.23426,0,1,1,112.88,98.4972l10.0509-4.1156A36.137,36.137,0,0,0,75.8498,74.656Z" transform="translate(-29.9357 -45.42629)"/></g><path class="cls-1" d="M70.95706,136.10358h85.66518a5.81093,5.81093,0,0,1,5.81093,5.81093v50.79429a5.81093,5.81093,0,0,1-5.81093,5.81093H70.957a5.81088,5.81088,0,0,1-5.81088-5.81088V141.91451a5.81093,5.81093,0,0,1,5.81093-5.81093Z" transform="translate(-84.85023 10.17066) rotate(-22.26791)"/><g class="cls-3"><path d="M118.2335,156.705a8.13182,8.13182,0,1,0-6.6276,11.1281l4.607,11.2509,4.1059-1.6812-4.607-11.2511A8.10718,8.10718,0,0,0,118.2335,156.705Z" transform="translate(-29.9357 -45.42629)"/></g><path class="cls-4" d="M83.1581,207.1817c-.2067.0846-4.3183-9.4798-9.1828-21.3596-4.8663-11.8843-8.6427-21.5834-8.436-21.668.2063-.0845,4.3173,9.4776,9.1836,21.3618C79.5874,197.3958,83.3643,207.0972,83.1581,207.1817Z" transform="translate(-29.9357 -45.42629)"/><path class="cls-4" d="M108.765,171.8459a2.50239,2.50239,0,0,1-1.0876-.1393,9.93785,9.93785,0,0,1-2.7491-1.1824,11.3963,11.3963,0,0,1-2.7326-17.3594,9.94,9.94,0,0,1,2.2527-1.9698c.6025-.3689.9688-.5083.9921-.4666a25.364,25.364,0,0,0-2.8011,2.7963,11.27213,11.27213,0,0,0,2.6007,16.5207A25.34405,25.34405,0,0,0,108.765,171.8459Z" transform="translate(-29.9357 -45.42629)"/><path d="M44.9388,181.7082l.4867-1.4178.9312,1.1747a6.27841,6.27841,0,0,0,2.8819,2.0384l1.4178.4868-1.1747.9311a6.27893,6.27893,0,0,0-2.0384,2.8819l-.4868,1.4178-.9311-1.1747a6.27893,6.27893,0,0,0-2.8819-2.0384l-1.4178-.4868,1.1747-.9311A6.27893,6.27893,0,0,0,44.9388,181.7082Z" transform="translate(-29.9357 -45.42629)"/><path d="M92.3997,125.9194l.2826-.8232.5407.6821a3.64624,3.64624,0,0,0,1.6733,1.1836l.8232.2826-.682.5406a3.64551,3.64551,0,0,0-1.1836,1.6733l-.2826.8232-.5407-.682a3.64572,3.64572,0,0,0-1.6733-1.1836l-.8232-.2826.6821-.5407A3.64552,3.64552,0,0,0,92.3997,125.9194Z" transform="translate(-29.9357 -45.42629)"/><path d="M35.3343,132.8662l.8177-2.3821,1.5645,1.9737a10.54951,10.54951,0,0,0,4.8421,3.4249l2.3821.8178L42.967,138.265a10.54973,10.54973,0,0,0-3.4249,4.8421l-.8177,2.3821-1.5645-1.9737a10.55,10.55,0,0,0-4.8421-3.4249l-2.3821-.8178,1.9737-1.5645A10.551,10.551,0,0,0,35.3343,132.8662Z" transform="translate(-29.9357 -45.42629)"/></g><g id="Device"><path class="cls-5" d="M311.06239,479.8958,163.448,479.8082a32.15385,32.15385,0,0,1-32.1361-32.1606l.0724-370.0721a32.15545,32.15545,0,0,1,32.17359-32.1492l147.615.0868a32.15518,32.15518,0,0,1,32.1355,32.1614l-.0726,370.0729A32.15421,32.15421,0,0,1,311.06239,479.8958Z" transform="translate(-29.9357 -45.42629)"/><path class="cls-6" d="M311.01619,58.6025l-28.6199-.0166a7.10906,7.10906,0,0,0-6.9504,7.2608l-.0021,5.1915a7.10826,7.10826,0,0,1-6.9503,7.261l-55.7866-.0329a7.11617,7.11617,0,0,1-6.9482-7.2691l.0014-5.1914a7.11663,7.11663,0,0,0-6.949-7.2691l-10.0654-.0063-25.0493-.0144A22.51978,22.51978,0,0,0,141.1641,81.0314l-.0707,361.217a22.51964,22.51964,0,0,0,22.50609,22.5253l147.3198.0857a22.51964,22.51964,0,0,0,22.5323-22.5147l.0707-361.2184A22.5197,22.5197,0,0,0,311.01619,58.6025Z" transform="translate(-29.9357 -45.42629)"/><path class="cls-5" d="M223.62639,437.2537a2.82829,2.82829,0,1,1-2.8516-2.8048A2.82835,2.82835,0,0,1,223.62639,437.2537Z" transform="translate(-29.9357 -45.42629)"/><path class="cls-5" d="M239.47209,437.1227a2.8283,2.8283,0,1,1-2.8516-2.8048A2.82834,2.82834,0,0,1,239.47209,437.1227Z" transform="translate(-29.9357 -45.42629)"/><path class="cls-5" d="M255.31779,436.9918a2.8283,2.8283,0,1,1-2.8516-2.8048A2.8283,2.8283,0,0,1,255.31779,436.9918Z" transform="translate(-29.9357 -45.42629)"/><path class="cls-7" d="M311.87539,95.0766c.0007.0863-3.7211.187-8.3118.225-4.5923.0379-8.3145-.0012-8.3152-.0876-.0008-.0862,3.7203-.1869,8.31261-.2249C308.15169,94.9512,311.87469,94.9904,311.87539,95.0766Z" transform="translate(-29.9357 -45.42629)"/><path class="cls-7" d="M311.91059,99.3307c.0007.0864-3.7211.1871-8.3119.225-4.5923.038-8.3145-.0012-8.3152-.0875s3.7203-.187,8.3127-.2249C308.18689,99.2053,311.90979,99.2445,311.91059,99.3307Z" transform="translate(-29.9357 -45.42629)"/><path class="cls-7" d="M311.94569,103.5849c.0007.0863-3.7211.187-8.3118.225-4.5923.0379-8.3145-.0013-8.3152-.0876s3.72031-.1869,8.3126-.2249C308.222,103.4595,311.945,103.4987,311.94569,103.5849Z" transform="translate(-29.9357 -45.42629)"/><path class="cls-8" d="M160.64869,108.4405a2.945,2.945,0,0,1,.3437-.0207c.2659-.0081.58161-.0177.9605-.0293.8937-.0197,2.084-.046,3.5533-.0785l-.0875.089c-.012-.7853-.0252-1.6453-.0394-2.5743.0051-.4773-.0401-.9326.0063-1.4793a1.34956,1.34956,0,0,1,1.1789-1.0823c.56851-.0109,1.0778-.0364,1.6921-.0078a1.36194,1.36194,0,0,1,1.1503,1.3556c.0132,1.1999.027,2.4541.0412,3.7548l-.1466-.1443c1.43751-.0143,2.935-.0292,4.4784-.0445l-.1517.1542c-.0159-1.8034-.0324-3.669-.0493-5.5801q-.006-.7152-.0121-1.4216a1.13563,1.13563,0,0,0-.1816-.5854,3.57148,3.57148,0,0,0-.4537-.486q-.99435-.97965-1.9583-1.9295-.962-.9489-1.889-1.8634-.4626-.4566-.9154-.9038c-.3133-.3017-.5637-.6191-.9343-.6956a1.22042,1.22042,0,0,0-1.0423.1995c-.2751.2328-.5613.5548-.8353.8216q-.8271.835-1.6063,1.6218c-1.0112,1.0516-2.0607,2.0074-2.8293,2.92a3.18531,3.18531,0,0,0-.2259,1.6794q-.00075.83445-.0015,1.5797-.00675,1.45845-.0117,2.5431c-.006.6574-.0109,1.1946-.0148,1.6242-.0053.3747-.0187.5835-.0187.5835s-.0165-.1784-.0279-.5412c-.011-.4236-.0247-.9533-.0415-1.6016q-.0228-1.0902-.0538-2.5613-.0132-.7578-.0279-1.6074-.0063-.4287-.013-.8795a1.84466,1.84466,0,0,1,.246-.9304c.8249-1.0093,1.8173-1.9113,2.8353-2.9902q.7731-.79125,1.59511-1.6328c.28669-.281.52459-.564.86259-.8545a1.505,1.505,0,0,1,1.284-.2524,2.39579,2.39579,0,0,1,1.067.7648q.4545.44535.9189.9004.929.9111,1.8943,1.8579.96495.9474,1.9617,1.9261a3.71713,3.71713,0,0,1,.4974.5386,1.44573,1.44573,0,0,1,.2318.7453q.0063.7095.0127,1.4281c.0147,1.9111.0291,3.7768.0429,5.5802l.0012.1534-.153.001-4.4786.0296-.1461.0009-.00079-.1454c-.00721-1.3008-.01421-2.555-.02091-3.7549a1.09625,1.09625,0,0,0-.9192-1.1026c-.5208-.0273-1.1227-.0092-1.6281-.0042a1.11325,1.11325,0,0,0-.978.8827c-.0433.4556-.0096.9768-.0185,1.4338.0011.9292.0021,1.7893.0031,2.5746l.0001.0897-.0878-.0005c-1.4913-.008-2.6993-.0145-3.6062-.0194-.3714-.0053-.6807-.0098-.9412-.0135A2.00351,2.00351,0,0,1,160.64869,108.4405Z" transform="translate(-29.9357 -45.42629)"/><path class="cls-5" d="M198.46689,194.205c0,3.4658-2.5996,5.6211-6.75389,5.6211h-3.13291v4.2876h-3.5986V188.5619H191.713C195.86729,188.5619,198.46689,190.7167,198.46689,194.205Zm-3.6436,0c0-1.711-1.1108-2.7105-3.3105-2.7105h-2.9327v5.399h2.9327C193.71249,196.8935,194.82329,195.8935,194.82329,194.205Z" transform="translate(-29.9357 -45.42629)"/><path class="cls-5" d="M211.24269,197.2929v6.8208h-3.2436v-1.4888a3.92282,3.92282,0,0,1-3.6436,1.6665c-2.7993,0-4.4658-1.5552-4.4658-3.6216,0-2.1103,1.4888-3.5766,5.13231-3.5766h2.75489c0-1.4888-.8887-2.355-2.75489-2.355a5.74762,5.74762,0,0,0-3.44381,1.1108l-1.24419-2.4214a9.18621,9.18621,0,0,1,5.15429-1.4443C209.13189,191.9833,211.24269,193.6718,211.24269,197.2929Zm-3.4658,3.0439v-1.2217h-2.3774c-1.6216,0-2.1328.5997-2.1328,1.3995,0,.8662.7334,1.4443,1.955,1.4443A2.55386,2.55386,0,0,0,207.77689,200.3368Z" transform="translate(-29.9357 -45.42629)"/><path class="cls-5" d="M213.22079,203.0028l1.15521-2.4882a8.18123,8.18123,0,0,0,4.15429,1.1552c1.5996,0,2.19971-.4218,2.19971-1.0888,0-1.9551-7.22021.0449-7.22021-4.732,0-2.2661,2.044-3.8657,5.5318-3.8657a9.83516,9.83516,0,0,1,4.5991,1.044l-1.1553,2.4663a6.86607,6.86607,0,0,0-3.4438-.8887c-1.5552,0-2.2217.4888-2.2217,1.1108,0,2.044,7.2202.0664,7.2202,4.7764,0,2.2217-2.0659,3.7993-5.6426,3.7993A10.25854,10.25854,0,0,1,213.22079,203.0028Z" transform="translate(-29.9357 -45.42629)"/><path class="cls-5" d="M225.01859,203.0028l1.1553-2.4882a8.18129,8.18129,0,0,0,4.1543,1.1552c1.5996,0,2.2002-.4218,2.2002-1.0888,0-1.9551-7.2207.0449-7.2207-4.732,0-2.2661,2.0439-3.8657,5.5312-3.8657a9.834,9.834,0,0,1,4.5996,1.044l-1.1552,2.4663a6.86691,6.86691,0,0,0-3.4444-.8887c-1.5547,0-2.2207.4888-2.2207,1.1108,0,2.044,7.21981.0664,7.21981,4.7764,0,2.2217-2.06551,3.7993-5.64261,3.7993A10.25753,10.25753,0,0,1,225.01859,203.0028Z" transform="translate(-29.9357 -45.42629)"/><path class="cls-5" d="M256.94389,192.161l-4.3315,11.9527h-3.333l-2.6885-7.4204-2.7764,7.4204h-3.333l-4.3096-11.9527h3.2657l2.8213,8.087,2.9326-8.087h2.9326l2.8437,8.087,2.9097-8.087Z" transform="translate(-29.9357 -45.42629)"/><path class="cls-5" d="M257.34529,198.1376c0-3.5996,2.7773-6.1543,6.5761-6.1543s6.5538,2.5547,6.5538,6.1543c0,3.5986-2.7549,6.1538-6.5538,6.1538S257.34529,201.7362,257.34529,198.1376Zm9.6201,0a3.06455,3.06455,0,1,0-3.044,3.3101A3.01647,3.01647,0,0,0,266.96539,198.1376Z" transform="translate(-29.9357 -45.42629)"/><path class="cls-5" d="M280.20759,191.9833v3.1992c-.2881-.0224-.5108-.0444-.7774-.0444-1.9101,0-3.1767,1.0444-3.1767,3.3325v5.6431h-3.4658V192.161h3.3105v1.5772A4.82171,4.82171,0,0,1,280.20759,191.9833Z" transform="translate(-29.9357 -45.42629)"/><path class="cls-5" d="M294.33839,187.6288v16.4849h-3.3105v-1.3775a4.598,4.598,0,0,1-3.7324,1.5552,6.15668,6.15668,0,0,1,0-12.3081,4.59158,4.59158,0,0,1,3.5771,1.4443v-5.7988ZM290.939,198.1376a3.06451,3.06451,0,1,0-3.04391,3.3101A3.02842,3.02842,0,0,0,290.939,198.1376Z" transform="translate(-29.9357 -45.42629)"/><path class="cls-9" d="M321.02319,216.9698c0,.1439-37.0288.2605-82.6955.2605-45.68269,0-82.7035-.1166-82.7035-.2605,0-.1437,37.02081-.2603,82.7035-.2603C283.99439,216.7095,321.02319,216.8261,321.02319,216.9698Z" transform="translate(-29.9357 -45.42629)"/><path class="cls-9" d="M317.14739,369.2343c0,.1438-37.0288.2604-82.6956.2604-45.6826,0-82.7034-.1166-82.7034-.2604s37.0208-.2604,82.7034-.2604C280.11859,368.9739,317.14739,369.0905,317.14739,369.2343Z" transform="translate(-29.9357 -45.42629)"/><path class="cls-9" d="M279.73689,380.6675c0,.1439-20.5695.2605-45.9375.2605-25.3768,0-45.942-.1166-45.942-.2605,0-.1437,20.5652-.2603,45.942-.2603C259.16739,380.4072,279.73689,380.5238,279.73689,380.6675Z" transform="translate(-29.9357 -45.42629)"/><path d="M170.49909,261.2978l3.1333,1.6962-1.4087,2.3575-3.1621-1.8692.0576,3.4785h-2.7021l.0288-3.5068-3.1626,1.8975-1.3799-2.3575,3.1338-1.6962-3.1338-1.7246,1.3799-2.3575,3.1626,1.8975-.0288-3.5078h2.7021l-.0576,3.5078,3.1621-1.8975,1.4087,2.3575Z" transform="translate(-29.9357 -45.42629)"/><path d="M206.41509,261.2978l3.1333,1.6962-1.4087,2.3575-3.1621-1.8692.0576,3.4785h-2.7021l.0288-3.5068-3.1626,1.8975-1.3799-2.3575,3.1338-1.6962-3.1338-1.7246,1.3799-2.3575,3.1626,1.8975-.0288-3.5078h2.7021l-.0576,3.5078,3.1621-1.8975,1.4087,2.3575Z" transform="translate(-29.9357 -45.42629)"/><path d="M241.37989,261.2978l3.1329,1.6962-1.4082,2.3575-3.1622-1.8692.0567,3.4785h-2.7022l.0293-3.5068-3.1621,1.8975-1.3799-2.3575,3.1329-1.6962-3.1329-1.7246,1.3799-2.3575,3.1621,1.8975-.0293-3.5078h2.7022l-.0567,3.5078,3.1622-1.8975,1.4082,2.3575Z" transform="translate(-29.9357 -45.42629)"/><path d="M275.24859,261.2978l3.1328,1.6962-1.4082,2.3575-3.1621-1.8692.0566,3.4785h-2.7021l.0293-3.5068-3.1621,1.8975-1.3799-2.3575,3.1328-1.6962-3.1328-1.7246,1.3799-2.3575,3.1621,1.8975-.0293-3.5078h2.7021l-.0566,3.5078,3.1621-1.8975,1.4082,2.3575Z" transform="translate(-29.9357 -45.42629)"/><path d="M308.85409,261.2978l3.1328,1.6962-1.4082,2.3575-3.1621-1.8692.0566,3.4785h-2.7021l.0293-3.5068-3.1622,1.8975-1.3798-2.3575,3.1328-1.6962-3.1328-1.7246,1.3798-2.3575,3.1622,1.8975-.0293-3.5078h2.7021l-.0566,3.5078,3.1621-1.8975,1.4082,2.3575Z" transform="translate(-29.9357 -45.42629)"/><path class="cls-8" d="M176.07479,283.078h-15.1582a7.07431,7.07431,0,0,1-7.0664-7.0664V249.1132a7.07431,7.07431,0,0,1,7.0664-7.0664h15.1582a7.07431,7.07431,0,0,1,7.0664,7.0664v26.8984A7.07431,7.07431,0,0,1,176.07479,283.078Zm-15.1582-40.5312a6.574,6.574,0,0,0-6.5664,6.5664v26.8984a6.57368,6.57368,0,0,0,6.5664,6.5664h15.1582a6.57368,6.57368,0,0,0,6.5664-6.5664V249.1132a6.574,6.574,0,0,0-6.5664-6.5664Z" transform="translate(-29.9357 -45.42629)"/><path class="cls-8" d="M211.26469,283.078h-15.1582a7.07431,7.07431,0,0,1-7.0664-7.0664V249.1132a7.07431,7.07431,0,0,1,7.0664-7.0664h15.1582a7.07431,7.07431,0,0,1,7.0664,7.0664v26.8984A7.07431,7.07431,0,0,1,211.26469,283.078Zm-15.1582-40.5312a6.574,6.574,0,0,0-6.5664,6.5664v26.8984a6.57368,6.57368,0,0,0,6.5664,6.5664h15.1582a6.57368,6.57368,0,0,0,6.5664-6.5664V249.1132a6.574,6.574,0,0,0-6.5664-6.5664Z" transform="translate(-29.9357 -45.42629)"/><path class="cls-8" d="M245.48739,283.078h-15.1582a7.07431,7.07431,0,0,1-7.0664-7.0664V249.1132a7.07431,7.07431,0,0,1,7.0664-7.0664h15.1582a7.07431,7.07431,0,0,1,7.0664,7.0664v26.8984A7.07431,7.07431,0,0,1,245.48739,283.078Zm-15.1582-40.5312a6.574,6.574,0,0,0-6.5664,6.5664v26.8984a6.57368,6.57368,0,0,0,6.5664,6.5664h15.1582a6.57367,6.57367,0,0,0,6.5664-6.5664V249.1132a6.574,6.574,0,0,0-6.5664-6.5664Z" transform="translate(-29.9357 -45.42629)"/><path class="cls-8" d="M280.09819,283.078H264.94a7.07431,7.07431,0,0,1-7.06641-7.0664V249.1132a7.07431,7.07431,0,0,1,7.06641-7.0664h15.15819a7.07431,7.07431,0,0,1,7.0664,7.0664v26.8984A7.07431,7.07431,0,0,1,280.09819,283.078ZM264.94,242.5468a6.57368,6.57368,0,0,0-6.56641,6.5664v26.8984A6.57336,6.57336,0,0,0,264.94,282.578h15.15819a6.57336,6.57336,0,0,0,6.5664-6.5664V249.1132a6.57368,6.57368,0,0,0-6.5664-6.5664Z" transform="translate(-29.9357 -45.42629)"/><path class="cls-8" d="M313.70369,283.078h-15.1582a7.07431,7.07431,0,0,1-7.0664-7.0664V249.1132a7.07431,7.07431,0,0,1,7.0664-7.0664h15.1582a7.07431,7.07431,0,0,1,7.0664,7.0664v26.8984A7.07431,7.07431,0,0,1,313.70369,283.078Zm-15.1582-40.5312a6.57368,6.57368,0,0,0-6.5664,6.5664v26.8984a6.57336,6.57336,0,0,0,6.5664,6.5664h15.1582a6.57336,6.57336,0,0,0,6.5664-6.5664V249.1132a6.57368,6.57368,0,0,0-6.5664-6.5664Z" transform="translate(-29.9357 -45.42629)"/><rect class="cls-1" x="124.14959" y="270.13221" width="169.7884" height="29.7389" rx="11.2899"/><path d="M217.54989,324.4521h4.5708c3.292,0,5.54831,1.9834,5.54831,5.0302,0,3.0479-2.25631,5.0313-5.54831,5.0313h-4.5708Zm4.456,8.1494a3.12444,3.12444,0,1,0,0-6.2383h-2.1274v6.2383Z" transform="translate(-29.9357 -45.42629)"/><path d="M228.69339,330.6474a4.25645,4.25645,0,1,1,4.2549,3.9814A3.98087,3.98087,0,0,1,228.69339,330.6474Zm6.2237,0a1.9825,1.9825,0,1,0-1.9688,2.1416A1.95117,1.95117,0,0,0,234.91709,330.6474Z" transform="translate(-29.9357 -45.42629)"/><path d="M246.59189,330.0868v4.4268h-2.2422v-4.0821c0-1.2509-.5752-1.8251-1.5664-1.8251-1.0782,0-1.8545.6611-1.8545,2.0839v3.8233h-2.2422v-7.7334h2.1416v.9062a3.385,3.385,0,0,1,2.5586-1.0205C245.212,326.6659,246.59189,327.7294,246.59189,330.0868Z" transform="translate(-29.9357 -45.42629)"/><path d="M256.23979,331.2792h-5.8491a2.06284,2.06284,0,0,0,2.2139,1.5527,2.62271,2.62271,0,0,0,1.9399-.747l1.1924,1.2929a4.0497,4.0497,0,0,1-3.19,1.251c-2.6738,0-4.413-1.6816-4.413-3.9814a3.93636,3.93636,0,0,1,4.125-3.9815,3.82826,3.82826,0,0,1,4.0249,4.0098C256.28379,330.8485,256.25449,331.0927,256.23979,331.2792Zm-5.8784-1.3076h3.8091a1.93141,1.93141,0,0,0-3.8091,0Z" transform="translate(-29.9357 -45.42629)"/><circle cx="207.37439" cy="98.08951" r="30.0484"/><path class="cls-10" d="M230.13364,134.00528h-.72805v-4.0854a8.53468,8.53468,0,1,1,17.06936,0V133.248h-.72806v-3.32808a7.80663,7.80663,0,1,0-15.61325,0Z" transform="translate(-29.9357 -45.42629)"/><path class="cls-10" d="M248.68473,162.53725h-21.698a3.6032,3.6032,0,0,1-3.59892-3.59906V137.23944a3.60255,3.60255,0,0,1,3.59892-3.59819h21.698a3.60267,3.60267,0,0,1,3.59906,3.59819v21.69875A3.60332,3.60332,0,0,1,248.68473,162.53725Zm-21.698-28.16795a2.87349,2.87349,0,0,0-2.87086,2.87014v21.69875a2.87377,2.87377,0,0,0,2.87086,2.871h21.698a2.87389,2.87389,0,0,0,2.871-2.871V137.23944a2.87361,2.87361,0,0,0-2.871-2.87014Z" transform="translate(-29.9357 -45.42629)"/><path class="cls-10" d="M237.94027,148.80092a3.40562,3.40562,0,1,1,3.40641-3.40569A3.40967,3.40967,0,0,1,237.94027,148.80092Zm0-6.08317a2.67756,2.67756,0,1,0,2.67836,2.67748A2.6802,2.6802,0,0,0,237.94027,142.71775Z" transform="translate(-29.9357 -45.42629)"/><rect class="cls-10" x="207.53599" y="102.85494" width="0.72805" height="6.1471"/></g><g id="Character"><polygon class="cls-1" points="416.378 413.344 397.504 369.813 375.854 383.71 398.816 423.504 410.328 418.343 416.378 413.344"/><path d="M445.88619,456.344l.62681,1.2315s25.15089-2.1438,27.37419,1.7126l-41.6394,20.7238-6.3299-14.138C433.53559,465.6601,440.17559,462.7584,445.88619,456.344Z" transform="translate(-29.9357 -45.42629)"/><g class="cls-11"><path class="cls-6" d="M432.339,468.2057a1.89892,1.89892,0,0,0-.21,2.5256,1.82567,1.82567,0,0,0,2.50169.2302,2.003,2.003,0,0,0,.2082-2.6756,1.89412,1.89412,0,0,0-2.6285.0488" transform="translate(-29.9357 -45.42629)"/></g><g class="cls-11"><path class="cls-6" d="M432.24749,480.012l-1.5223-3.4003,40.4665-18.6176s2.2551-.116,2.6955,1.294Z" transform="translate(-29.9357 -45.42629)"/></g><path class="cls-5" d="M446.71669,457.6193c.0946.2068-.8762.805-1.5512,1.9566-.7052,1.1341-.78249,2.2714-1.0097,2.2838-.2071.0539-.509-1.3125.3328-2.6923C445.31789,457.78,446.668,457.4106,446.71669,457.6193Z" transform="translate(-29.9357 -45.42629)"/><path class="cls-5" d="M451.98309,457.252c.1446.1739-.5638.9579-.8265,2.1617-.2979,1.1958-.0094,2.2123-.2161,2.3043-.1754.127-.9086-.9937-.5534-2.4843C450.72849,457.741,451.88249,457.0602,451.98309,457.252Z" transform="translate(-29.9357 -45.42629)"/><path class="cls-5" d="M457.06509,461.2444c-.1632.1355-.9517-.7395-.9837-2.1129-.0418-1.3735.6982-2.2898.8687-2.1634.198.1102-.12209,1.0147-.0785,2.142C456.88859,460.2377,457.25739,461.1239,457.06509,461.2444Z" transform="translate(-29.9357 -45.42629)"/><polygon class="cls-1" points="380.886 420.899 381.606 373.458 356.154 377.21 360.699 422.929 373.315 422.964 380.886 420.899"/><path d="M411.43089,463.9382l.0643,1.3803s23.8035,8.4001,24.242,12.8298l-46.4786,1.7447.0515-15.4902C396.34029,467.3439,403.58609,467.433,411.43089,463.9382Z" transform="translate(-29.9357 -45.42629)"/><g class="cls-11"><path class="cls-6" d="M394.20179,469.1712a1.899,1.899,0,0,0-1.231,2.2152,1.82575,1.82575,0,0,0,2.1851,1.2397,2.003,2.003,0,0,0,1.2912-2.3527,1.89418,1.89418,0,0,0-2.4156-1.0376" transform="translate(-29.9357 -45.42629)"/></g><g class="cls-11"><path class="cls-6" d="M389.25819,479.893l.0125-3.7255,44.5427-.3081s2.1029.8226,1.9238,2.2889Z" transform="translate(-29.9357 -45.42629)"/></g><path class="cls-5" d="M411.66279,465.4423c.0011.2274-1.12979.3729-2.2191,1.1445-1.1095.7432-1.6482,1.7479-1.8603,1.6657-.211-.0362.0764-1.4057,1.41161-2.3167C410.322,465.0129,411.70439,465.2321,411.66279,465.4423Z" transform="translate(-29.9357 -45.42629)"/><path class="cls-5" d="M416.61349,467.2755c.0602.218-.9081.6409-1.6431,1.6299-.7638.9671-.9193,2.0122-1.1455,2.011-.2122.0435-.419-1.2796.5183-2.4919C415.26879,467.2047,416.60079,467.0593,416.61349,467.2755Z" transform="translate(-29.9357 -45.42629)"/><path class="cls-5" d="M419.60139,473.006c-.2046.0564-.563-1.0657-.0267-2.3304.52731-1.269,1.579-1.7994,1.68231-1.614.135.1819-.529.8745-.95341,1.9198C419.85489,472.0159,419.82629,472.9754,419.60139,473.006Z" transform="translate(-29.9357 -45.42629)"/><path class="cls-5" d="M392.50749,272.8863l-.946-37.3554L355.2,237.4446l-1.18151,4.4192a199.94618,199.94618,0,0,0-4.7588,20.7974c-2.4406,15.6467-2.1525,29.8919,3.9815,46.6144s15.7762,48.5399,15.7762,48.5399l36.0749,99.6302,42.0031-13.8082Z" transform="translate(-29.9357 -45.42629)"/><path class="cls-5" d="M414.49589,234.3238l3.1772,10.3421c4.6592,2.9609,12.1844,17.7049,12.8765,23.7245s2.0419,26.63.6271,50.7884c-1.16369,19.8688-11.005,136.1753-11.005,136.1753l-39.742,2.0917,4.1416-188.0603,1.7458-33.5786Z" transform="translate(-29.9357 -45.42629)"/><path class="cls-12" d="M346.40429,266.0982a6.05974,6.05974,0,0,0,1.3741.4079,22.56652,22.56652,0,0,0,3.8753.5223,25.25047,25.25047,0,0,0,22.2254-11.0163,22.57835,22.57835,0,0,0,1.931-3.4002,6.07535,6.07535,0,0,0,.5074-1.3401c-.1022-.0507-.845,1.866-2.7598,4.5136a26.0204,26.0204,0,0,1-21.8898,10.85A52.88867,52.88867,0,0,1,346.40429,266.0982Z" transform="translate(-29.9357 -45.42629)"/><path class="cls-12" d="M412.97929,246.1242a2.76939,2.76939,0,0,0,.2268.8633,19.91321,19.91321,0,0,0,.9193,2.2463,28.9089,28.9089,0,0,0,10.485,11.8946,19.92943,19.92943,0,0,0,2.113,1.1939,2.76683,2.76683,0,0,0,.8279.3332c.044-.083-1.0639-.6889-2.7218-1.8537a33.3189,33.3189,0,0,1-10.3526-11.7445C413.52929,247.2665,413.06719,246.091,412.97929,246.1242Z" transform="translate(-29.9357 -45.42629)"/><path class="cls-12" d="M394.27269,277.8751s.0989.2597.2665.7744q.25425.79575.7312,2.2887c.6362,2.0306,1.5659,4.998,2.762,8.8156,2.3808,7.6771,5.8174,18.7592,10.0632,32.4505,8.626,27.3584,19.5726,65.4669,34.2516,106.7126q2.5305,7.40775,4.9992,14.6347l.0869.2542-.2552.0838c-14.7525,4.843-28.8694,9.4774-42.0086,13.7908l-.2282.0749-.08129-.2255c-9.83761-27.2845-18.21911-50.5307-24.14661-66.9708-2.9408-8.2101-5.2717-14.7177-6.8737-19.1902-.7863-2.2216-1.3926-3.9344-1.8082-5.1089-.19749-.5711-.3487-1.0085-.456-1.3187-.1002-.2969-.1414-.4516-.1414-.4516s.0674.1452.1804.4374c.1163.3071.2801.7398.4941,1.305.4326,1.1683,1.0635,2.8722,1.8818,5.0822,1.6328,4.4613,4.00861,10.9527,7.006,19.1423,5.9721,16.424,14.41661,39.6473,24.3281,66.905l-.3093-.1504c13.1356-4.3243,27.2486-8.9704,41.9972-13.8257l-.1681.3378q-2.4681-7.221-5.0024-14.6359c-14.6814-41.2531-25.5715-79.381-34.106-106.7701-4.1776-13.7129-7.5592-24.8128-9.9017-32.5021-1.1548-3.8305-2.0523-6.8079-2.6665-8.8452q-.444-1.5036-.6806-2.3043C394.33669,278.1456,394.27269,277.8751,394.27269,277.8751Z" transform="translate(-29.9357 -45.42629)"/><path class="cls-12" d="M430.00789,169.4542s-1.9023-10.639-7.3476-15.722-28.1596-10.8485-28.1596-10.8485.26931,7.8838-4.8062,9.9983c-5.3851,2.2437-10.7661,1.4864-15.0299-2.9636a21.74948,21.74948,0,0,1-5.1742-9.8865s-26.9177,3.9281-30.7526,11.2254-7.8332,34.9898-7.8332,34.9898l24.3902,3.85-.7945,47.3844,64.0973-3.3736-3.5863-44.2395,17.5802,1.5729Z" transform="translate(-29.9357 -45.42629)"/><path class="cls-5" d="M360.166,191.4046a3.97078,3.97078,0,0,0,.03009-1.0695c-.017-.686-.0598-1.6773-.1244-2.9012-.1293-2.4477-.3461-5.8262-.6201-9.5553-.2739-3.7303-.553-7.1052-.7827-9.5466-.11489-1.2208-.2174-2.2081-.3008-2.8899a4.00863,4.00863,0,0,0-.18609-1.0557,3.95079,3.95079,0,0,0-.03011,1.0673c.017.6854.0597,1.6763.1243,2.9002.1293,2.4477.3463,5.8278.6204,9.5598.2739,3.7308.5531,7.1065.7827,9.548.115,1.2208.2175,2.2079.3009,2.8891A3.97983,3.97983,0,0,0,360.166,191.4046Z" transform="translate(-29.9357 -45.42629)"/><path class="cls-5" d="M419.85989,168.7714c-.1497-.0346-1.40289,4.8324-2.7988,10.8693-1.3964,6.0391-2.4067,10.961-2.257,10.9956.1495.0346,1.4025-4.8313,2.79891-10.8703C418.99889,173.729,420.00939,168.806,419.85989,168.7714Z" transform="translate(-29.9357 -45.42629)"/><path class="cls-5" d="M341.34349,149.4164c-.0139.0999,1.1601.2519,2.9564.8289a20.99171,20.99171,0,0,1,11.3487,8.8675c.99441,1.6034,1.4257,2.7056,1.5191,2.6679a2.423,2.423,0,0,0-.22469-.8043,13.36853,13.36853,0,0,0-.95571-2.0635,19.15807,19.15807,0,0,0-11.57529-9.0446,13.38369,13.38369,0,0,0-2.23341-.4283A2.42835,2.42835,0,0,0,341.34349,149.4164Z" transform="translate(-29.9357 -45.42629)"/><path class="cls-5" d="M423.16349,155.8745a11.29206,11.29206,0,0,0-.9566,3.3846,11.29259,11.29259,0,0,0-.411,3.4936,11.29377,11.29377,0,0,0,.9565-3.385A11.29478,11.29478,0,0,0,423.16349,155.8745Z" transform="translate(-29.9357 -45.42629)"/><path class="cls-1" d="M335.24419,186.933s9.156,36.3095,10.1479,39.4053,2.7718,11.4767,11.6128,12.7638c11.9357,1.7375,58.2368-2.3507,58.2368-2.3507l-9.3333-10.6166-41.185-9.2446-6.9519-26.4023Z" transform="translate(-29.9357 -45.42629)"/><path class="cls-13" d="M406.34779,219.9019a2.59959,2.59959,0,0,0-.302.8638,12.07154,12.07154,0,0,0-.3364,2.4714,14.13206,14.13206,0,0,0,2.0782,7.9041,16.52675,16.52675,0,0,0,2.84941,3.5397,8.88689,8.88689,0,0,0,3.20649,1.8997,8.64619,8.64619,0,0,0,2.4684.4214,2.69991,2.69991,0,0,0,.9126-.078,18.68171,18.68171,0,0,1-3.2492-.714,9.01875,9.01875,0,0,1-2.9916-1.9065,17.28465,17.28465,0,0,1-2.724-3.4565,14.78945,14.78945,0,0,1-2.1571-7.6044C406.08789,221.1796,406.44869,219.9233,406.34779,219.9019Z" transform="translate(-29.9357 -45.42629)"/><path d="M359.87889,182.5659a4.40077,4.40077,0,0,1-1.0974-.1065q-1.2222-.17865-2.9592-.4326c-2.4987-.3612-5.96229-.769-9.79029-1.2648a97.17906,97.17906,0,0,1-9.74841-1.6944c-1.2323-.2962-2.22259-.5647-2.8964-.786a4.38,4.38,0,0,1-1.0331-.3861c.0236-.0825,1.5366.3114,4.0097.8038,2.47221.5003,5.9147,1.0377,9.7381,1.5341,3.822.4951,7.2889.9634,9.7802,1.4212,1.2457.2269,2.2503.4308,2.9383.601A4.39666,4.39666,0,0,1,359.87889,182.5659Z" transform="translate(-29.9357 -45.42629)"/><path d="M357.97409,170.475a3.27166,3.27166,0,0,1-.9484.0518c-.6092,0-1.4896-.0267-2.57669-.0803-2.174-.1062-5.174-.3431-8.47071-.7538-3.2976-.4129-6.264-.9212-8.39729-1.3529-1.06691-.2154-1.92671-.4061-2.51711-.5559a3.27276,3.27276,0,0,1-.9064-.2834,26.2575,26.2575,0,0,1,3.4897.4681c2.1455.3359,5.1106.7835,8.3972,1.195,3.2857.4093,6.2695.7048,8.4317.9069A26.28811,26.28811,0,0,1,357.97409,170.475Z" transform="translate(-29.9357 -45.42629)"/><path d="M355.91189,161.2778a12.81192,12.81192,0,0,1-2.8503-.0235,59.3391,59.3391,0,0,1-13.4958-2.534,12.80634,12.80634,0,0,1-2.6645-1.012,18.3303,18.3303,0,0,1,2.768.6495c1.69571.4375,4.0464,1.0032,6.6698,1.4973,2.623.491,5.0185.8165,6.7575,1.0238A18.3208,18.3208,0,0,1,355.91189,161.2778Z" transform="translate(-29.9357 -45.42629)"/><path d="M373.02659,148.1663a19.54457,19.54457,0,0,1-3.2128.9557c-2.0041.5135-4.7891,1.1594-7.8846,1.779-3.0968.6186-5.9163,1.0933-7.9638,1.3899a19.54845,19.54845,0,0,1-3.333.3532,22.33178,22.33178,0,0,1,3.27-.725c2.1805-.4241,4.90661-.9544,7.9223-1.541,3.0082-.6178,5.7284-1.1766,7.90431-1.6235A22.34685,22.34685,0,0,1,373.02659,148.1663Z" transform="translate(-29.9357 -45.42629)"/><path d="M422.69459,158.9702a5.33564,5.33564,0,0,1-1.1471-.4014c-.8249-.3391-1.8458-.7587-3.0537-1.2551-2.5741-1.0681-6.1335-2.5319-10.0923-4.0791-3.9607-1.5461-7.5703-2.8825-10.1869-3.8418-1.22459-.4536-2.25959-.837-3.0958-1.1468a5.332,5.332,0,0,1-1.1153-.4822,5.31919,5.31919,0,0,1,1.1813.2854c.75021.2157,1.8279.5524,3.1536.9876,2.65161.8692,6.2889,2.1522,10.2571,3.7011,3.9662,1.5502,7.5098,3.072,10.0486,4.23,1.2696.5786,2.2904,1.0615,2.9883,1.4115A5.32913,5.32913,0,0,1,422.69459,158.9702Z" transform="translate(-29.9357 -45.42629)"/><path d="M419.86119,168.3181a2.79164,2.79164,0,0,1-.625-.0646c-.462-.0749-1.04919-.17-1.773-.2874-1.6047-.2802-3.8098-.6653-6.5048-1.1359-5.4907-.9594-13.07739-2.2911-21.5147-3.3089-4.2212-.4955-8.255-.8403-11.9296-1.0574-3.6757-.1883-6.991-.2703-9.7746-.226-1.3926-.0109-2.6502.0575-3.756.0876-1.1064.0236-2.05749.0783-2.8347.1296-.73179.0369-1.3256.0669-1.7926.0904a2.79759,2.79759,0,0,1-.6289-.0046,2.77656,2.77656,0,0,1,.6192-.1024c.4656-.0496,1.0574-.1126,1.787-.1903.7763-.0833,1.7276-.1684,2.8353-.2204,1.1071-.0586,2.3675-.1535,3.7637-.1668,2.7912-.0927,6.1182-.0497,9.8072.1123,3.6874.1907,7.7352.5218,11.9668,1.0185,8.4584,1.0204,16.0447,2.4129,21.5202,3.4676,2.7382.529,4.9495.9795,6.47531,1.3029.71619.1574,1.29729.2852,1.75439.3857A2.776,2.776,0,0,1,419.86119,168.3181Z" transform="translate(-29.9357 -45.42629)"/><path d="M393.99229,184.6551a6.79857,6.79857,0,0,1-1.3759-.0324c-.8832-.053-2.15839-.1629-3.7316-.3257-3.1463-.3239-7.4819-.899-12.2319-1.7634-4.7511-.8682-9.011-1.8607-12.0692-2.6682-1.5293-.4029-2.7611-.7503-3.6061-1.0123a6.7905,6.7905,0,0,1-1.29859-.4554,6.82477,6.82477,0,0,1,1.352.2549c.96239.2237,2.184.5077,3.643.8468,3.07569.7124,7.33629,1.6438,12.07449,2.5096,4.7372.8621,9.0518,1.4946,12.1811,1.9137,1.4848.1977,2.7281.3632,3.7076.4936A6.82487,6.82487,0,0,1,393.99229,184.6551Z" transform="translate(-29.9357 -45.42629)"/><path d="M415.74639,184.9956a97.11072,97.11072,0,0,1-10.1622.3626,97.10133,97.10133,0,0,1-10.16819-.1707,97.18791,97.18791,0,0,1,10.16319-.3625A97.21767,97.21767,0,0,1,415.74639,184.9956Z" transform="translate(-29.9357 -45.42629)"/><path d="M387.18159,199.3613a4.43779,4.43779,0,0,1-1.107-.0505c-.7087-.065-1.7304-.1901-2.9895-.3701-2.5182-.3584-5.9827-.9711-9.76409-1.8542-3.78211-.8864-7.159-1.8744-9.57491-2.6703-1.2082-.3973-2.1793-.7384-2.8432-.9946a4.4382,4.4382,0,0,1-1.0144-.4457,4.4384,4.4384,0,0,1,1.0794.2487q1.19175.3429,2.8889.8312c2.43821.7018,5.8177,1.6284,9.5857,2.5115,3.7673.8798,7.2068,1.5486,9.7033,2.0013q1.73655.31515,2.958.5367A4.44413,4.44413,0,0,1,387.18159,199.3613Z" transform="translate(-29.9357 -45.42629)"/><path d="M410.72769,200.4019a16.78977,16.78977,0,0,1-3.22.0329c-1.987-.0719-4.7301-.2712-7.7405-.661-3.0111-.3923-5.7143-.9005-7.6537-1.3386a16.7777,16.7777,0,0,1-3.1046-.8544,22.49173,22.49173,0,0,1,3.1782.4847c1.9522.3422,4.65191.7891,7.6488,1.1795,2.9962.388,5.7202.6456,7.695.8135A22.5,22.5,0,0,1,410.72769,200.4019Z" transform="translate(-29.9357 -45.42629)"/><path d="M405.81569,213.4633a1.36437,1.36437,0,0,1-.4055.1643c-.27219.0859-.6707.2264-1.19619.3612a38.86047,38.86047,0,0,1-4.50071.9351,58.65064,58.65064,0,0,1-15.1381.1267,118.37444,118.37444,0,0,1-14.884-2.7905c-1.8804-.4628-3.3956-.861-4.4396-1.1478a10.11366,10.11366,0,0,1-1.6081-.499,10.20912,10.20912,0,0,1,1.6572.2974c1.147.2517,2.6548.5826,4.4759.9822a144.57734,144.57734,0,0,0,14.8573,2.6278,64.002,64.002,0,0,0,15.0279.0297c1.9123-.2433,3.44821-.5335,4.5033-.7632A11.79982,11.79982,0,0,1,405.81569,213.4633Z" transform="translate(-29.9357 -45.42629)"/><path d="M428.92749,175.9283a31.40982,31.40982,0,0,1-5.07149.4133,20.08674,20.08674,0,0,1-5.09681-.1194,31.42767,31.42767,0,0,1,5.0721-.4132A20.0929,20.0929,0,0,1,428.92749,175.9283Z" transform="translate(-29.9357 -45.42629)"/><path d="M427.58279,163.7545a14.55709,14.55709,0,0,1-5.53479-.3603,14.56178,14.56178,0,0,1,5.53479.3603Z" transform="translate(-29.9357 -45.42629)"/><path class="cls-5" d="M385.24319,200.2304c-.0495-.0913,1.04781-.6357,2.5423-1.8779a17.70183,17.70183,0,0,0,2.3827-2.4236,18.09525,18.09525,0,0,0,3.589-7.4328,17.7051,17.7051,0,0,0,.4163-3.3734c.0433-1.9428-.2126-3.1404-.1104-3.1584a2.66919,2.66919,0,0,1,.2364.8273,6.29749,6.29749,0,0,1,.1593.9963,10.5741,10.5741,0,0,1,.0917,1.336,15.885,15.885,0,0,1-.3129,3.4749,17.16222,17.16222,0,0,1-3.6902,7.6424,15.88287,15.88287,0,0,1-2.5266,2.4059,10.57848,10.57848,0,0,1-1.1032.759,6.31,6.31,0,0,1-.8794.4949A2.67113,2.67113,0,0,1,385.24319,200.2304Z" transform="translate(-29.9357 -45.42629)"/><g class="cls-2"><path d="M393.81489,190.4938l-3.8968,5.7759a18.47629,18.47629,0,0,1-10.4178,6.4911,10.90247,10.90247,0,0,0,14.3146-12.267Z" transform="translate(-29.9357 -45.42629)"/></g><path class="cls-5" d="M405.341,130.2444a19.36334,19.36334,0,0,0,10.73279-2.1884c-4.84-2.9746-7.8985-8.258-9.3693-13.7453-1.4711-5.487-3.38449-14.8462-3.4372-20.5268l-8.8578,39.3679a23.84434,23.84434,0,0,0,14.055-1.0877A3.87652,3.87652,0,0,1,405.341,130.2444Z" transform="translate(-29.9357 -45.42629)"/><path class="cls-5" d="M380.06139,134.9639a27.73766,27.73766,0,0,1-2.1413-14.0746l-17.8604-6.7698a31.5398,31.5398,0,0,1-5.6978,13.4244c-1.09189,1.4795-2.3903,3.1979-1.8778,4.9639a3.73225,3.73225,0,0,0,2.7702,2.3675,11.005,11.005,0,0,0,3.7953.0462q-1.14135,1.2435-2.28259,2.4871A137.17957,137.17957,0,0,1,380.06139,134.9639Z" transform="translate(-29.9357 -45.42629)"/><path class="cls-5" d="M381.56889,76.1624c-5.6326-.5821-10.3888,1.8833-14.8812,5.3306a27.98119,27.98119,0,0,0-9.4178,13.8202,27.70015,27.70015,0,0,0,.1247,17.5768,22.12461,22.12461,0,0,0,11.7606,12.818c7.487,3.206,16.6702,1.316,22.832-4.01s9.3375-13.673,9.1169-21.8145a26.9039,26.9039,0,0,0-5.2945-15.686,20.49224,20.49224,0,0,0-14.2407-8.0351" transform="translate(-29.9357 -45.42629)"/><path class="cls-5" d="M366.96659,96.1421c.6751-2.1847.2036-4.5431.3779-6.8229.38451-5.0204,4.1308-9.2705,8.6388-11.5132,4.1935-2.0861,9.4853-2.0373,14.7893-.6982a19.86979,19.86979,0,0,1,9.6811,5.4424,15.65623,15.65623,0,0,1,3.79,13.8412l-25.69-2.0405a28.4461,28.4461,0,0,1-7.3794,5.5794,5.27025,5.27025,0,0,1-2.6284.5973,2.37565,2.37565,0,0,1-2.0862-1.5036C366.16449,98.0757,366.67339,97.0911,366.96659,96.1421Z" transform="translate(-29.9357 -45.42629)"/><path class="cls-1" d="M391.77669,84.0976l-21.9089,6.1611a4.1581,4.1581,0,0,0-3.6066,4.3146l3.4142,48.0627a14.962,14.962,0,0,0,3.7249,8.8616l2.2976,2.594c5.2386,5.9142,14.9833,4.6459,18.2175-2.5623a5.28213,5.28213,0,0,0,.429-1.2919,9.85134,9.85134,0,0,0,.1381-1.0992,34.83706,34.83706,0,0,0-.091-7.3057c-.0638-4.2952-.1113-6.0561-.10749-6.0162,0,0,9.017-1.7444,10.57949-13.6111.777-5.9014.2259-15.5291-.4797-23.3919C403.74849,91.7358,398.82059,83.1627,391.77669,84.0976Z" transform="translate(-29.9357 -45.42629)"/><path class="cls-5" d="M400.16529,106.3822a1.51591,1.51591,0,0,1-1.4206,1.568,1.45028,1.45028,0,0,1-1.59869-1.3249,1.51671,1.51671,0,0,1,1.419-1.5685A1.45077,1.45077,0,0,1,400.16529,106.3822Z" transform="translate(-29.9357 -45.42629)"/><path class="cls-5" d="M402.42669,103.8812c-.1825.2027-1.3533-.6164-2.9841-.569-1.6294.0242-2.804.8951-2.9862.7-.0895-.086.0928-.4477.6035-.8411a4.16281,4.16281,0,0,1,2.3842-.8049,3.99649,3.99649,0,0,1,2.3818.6995C402.33729,103.4373,402.51689,103.7901,402.42669,103.8812Z" transform="translate(-29.9357 -45.42629)"/><path class="cls-5" d="M384.72789,107.1949a1.51564,1.51564,0,0,1-1.4205,1.5678,1.44992,1.44992,0,0,1-1.59839-1.3247,1.51655,1.51655,0,0,1,1.41909-1.5688A1.45059,1.45059,0,0,1,384.72789,107.1949Z" transform="translate(-29.9357 -45.42629)"/><path class="cls-5" d="M386.405,104.6114c-.18331.2026-1.35521-.6162-2.98491-.5685-1.62909.0239-2.8039.8948-2.9862.6999-.0887-.0863.091-.4478.60411-.8411a4.15877,4.15877,0,0,1,2.38389-.8054,3.99883,3.99883,0,0,1,2.3819.6999C386.314,104.1676,386.49459,104.5206,386.405,104.6114Z" transform="translate(-29.9357 -45.42629)"/><path class="cls-5" d="M392.64469,116.5482a10.82163,10.82163,0,0,1,2.6359-.5482c.4152-.0542.8073-.1473.8699-.4333a2.11917,2.11917,0,0,0-.3107-1.2269q-.62745-1.4961-1.316-3.1383c-1.82979-4.4691-3.1667-8.1488-2.9861-8.2206.1806-.0723,1.8109,3.4918,3.6409,7.961q.6615,1.65345,1.26441,3.1585a2.4092,2.4092,0,0,1,.25959,1.6287,1.04641,1.04641,0,0,1-.6687.6271,2.8168,2.8168,0,0,1-.7046.1169A10.60435,10.60435,0,0,1,392.64469,116.5482Z" transform="translate(-29.9357 -45.42629)"/><path d="M394.28379,135.8163a30.07379,30.07379,0,0,1-15.93779-3.8008s4.19639,8.0744,15.99409,6.6542Z" transform="translate(-29.9357 -45.42629)"/><path class="cls-14" d="M392.05939,120.4969a2.93984,2.93984,0,0,0-2.6633-1.0215,2.683,2.683,0,0,0-1.8262,1.0432,1.70032,1.70032,0,0,0-.0776,1.9471,1.97289,1.97289,0,0,0,2.1522.4838,6.18179,6.18179,0,0,0,2.0513-1.2993,1.8003,1.8003,0,0,0,.4529-.4948.5447.5447,0,0,0-.0185-.6067" transform="translate(-29.9357 -45.42629)"/><path class="cls-5" d="M387.87539,117.8039c.26461-.0226.315,1.7475,1.8638,2.9636,1.5455,1.2205,3.4275.9715,3.4477,1.2185.0278.1105-.411.3552-1.2067.3978a4.40662,4.40662,0,0,1-2.8754-.9171,3.8381,3.8381,0,0,1-1.4494-2.4879C387.56829,118.2407,387.754,117.7969,387.87539,117.8039Z" transform="translate(-29.9357 -45.42629)"/><path class="cls-5" d="M386.54689,99.6736c-.14889.4475-1.783.2807-3.6896.5621-1.9134.2432-3.4411.8442-3.7057.4532-.1183-.1873.1396-.6115.7521-1.0574a6.48947,6.48947,0,0,1,5.6341-.7737C386.24759,99.1223,386.61039,99.4613,386.54689,99.6736Z" transform="translate(-29.9357 -45.42629)"/><path class="cls-5" d="M401.76409,96.7624c-.2769.3776-1.4106.0233-2.7622.041-1.3517-.0294-2.4882.315-2.7617-.0653-.1206-.1849.0499-.5606.5403-.9247a4.00006,4.00006,0,0,1,4.4508.0194C401.71889,96.2008,401.88569,96.5782,401.76409,96.7624Z" transform="translate(-29.9357 -45.42629)"/><path class="cls-5" d="M362.66959,92.9775c1.8603-6.916,11.3137-16.7923,18.4732-16.6185l11.7081,6.3174a11.01286,11.01286,0,0,1-7.0793,8.7536c-1.9873.7053-4.4064.9843-5.5257,2.7717-1.1432,1.8251-.3108,4.3694-1.3667,6.2462-1.4634,2.6011-5.78319,2.6775-6.8431,5.4674-.463,1.219-.1277,2.6348-.6123,3.8454-.6457,1.6129-4.55479,3.7982-6.233,3.3489s-1.8111-3.266-2.4191-4.7175a7.81564,7.81564,0,0,1-.4775-5.2275C362.86279,99.7952,361.78209,96.2773,362.66959,92.9775Z" transform="translate(-29.9357 -45.42629)"/><path class="cls-1" d="M370.13559,114.2819c-.0257-.8798-1.0978-2.9274-1.97059-3.0401-2.33031-.3001-6.50831-.0024-6.39071,5.8924.161,8.0582,8.2181,6.2344,8.22771,6.003C370.00939,122.9565,370.22349,117.3204,370.13559,114.2819Z" transform="translate(-29.9357 -45.42629)"/><path d="M367.47929,120.1334c-.0359-.025-.1385.101-.3732.2146a1.4044,1.4044,0,0,1-1.04909.0425c-.85761-.2953-1.60141-1.6327-1.66951-3.0842a4.63806,4.63806,0,0,1,.3527-2.0181,1.62023,1.62023,0,0,1,1.0345-1.0982.71473.71473,0,0,1,.8361.3677c.1126.2236.0644.3855.1077.398.0227.0201.17-.1381.0986-.4694a.89784.89784,0,0,0-.3273-.499,1.061,1.061,0,0,0-.7805-.1896,1.97335,1.97335,0,0,0-1.44129,1.2788,4.76693,4.76693,0,0,0-.44181,2.2558c.0841,1.6229.9456,3.1255,2.1174,3.4391a1.5052,1.5052,0,0,0,1.2797-.239C367.46869,120.3288,367.50749,120.1475,367.47929,120.1334Z" transform="translate(-29.9357 -45.42629)"/><path class="cls-5" d="M360.81249,91.006h0c-.1383-2.5153-3.3854-3.9541-5.871-4.3631a10.47423,10.47423,0,0,0-7.1514,1.8572,5.15773,5.15773,0,0,0-2.6706,3.3421c-.1943,1.4609,1.3059,3.0887,2.6492,2.4824a4.77305,4.77305,0,1,0,5.1464,7.8451,10.66452,10.66452,0,0,1-3.804,5.9766,11.9768,11.9768,0,0,0,11.7014-17.1403Z" transform="translate(-29.9357 -45.42629)"/><path class="cls-5" d="M346.785,125.5219c.03889-.3834,1.04139-.5584,2.47929-.9884a13.99608,13.99608,0,0,0,8.6993-6.8c.76441-1.2916,1.1763-2.2219,1.5578-2.1671.3434.0403.6032,1.1357.1964,2.8572a10.72766,10.72766,0,0,1-10.2073,7.9789C347.74169,126.3816,346.74109,125.865,346.785,125.5219Z" transform="translate(-29.9357 -45.42629)"/><path class="cls-15" d="M356.07169,104.1502a7.21981,7.21981,0,0,1-.4581-2.3919,17.73693,17.73693,0,0,1,2.979-11.2173,7.22166,7.22166,0,0,1,1.58441-1.8493,26.82376,26.82376,0,0,0-3.50221,7.3447A26.82953,26.82953,0,0,0,356.07169,104.1502Z" transform="translate(-29.9357 -45.42629)"/><path class="cls-5" d="M390.35759,80.3994c.9536,3.2229,6.2,7.0921,8.549,9.496,4.482,4.5869,5.4087,6.1467,6.079,17.0121,1.7205-3.8803,2.9853-7.6553,2.5573-11.8782a17.57035,17.57035,0,0,0-5.407-11.2153,13.68257,13.68257,0,0,0-11.7783-3.4146" transform="translate(-29.9357 -45.42629)"/><path class="cls-1" d="M442.90349,174.4341s-5.3822,22.3521-7.5956,32.0048c-2.3521,10.2564-7.4441,33.5325-21.0911,30.1629-10.3802-2.5629-8.06979-15.9621-8.06979-15.9621l8.86429-30.7713,8.202.9284,7.5304-18.5335,8.1146-8.5532Z" transform="translate(-29.9357 -45.42629)"/><path d="M409.76909,221.4025a11.41083,11.41083,0,0,1-.2663-4.9781,15.51363,15.51363,0,0,1,1.9173-5.062,43.993,43.993,0,0,1,3.9637-5.4204,43.2347,43.2347,0,0,0,3.9758-5.5128,33.27548,33.27548,0,0,0,2.4157-5.0027,30.27839,30.27839,0,0,0,1.1254-3.5666,5.62494,5.62494,0,0,0,.2469-1.3494,7.65858,7.65858,0,0,0-.4552,1.2901c-.27339.8334-.6765,2.0369-1.2821,3.4794a36.81467,36.81467,0,0,1-2.4901,4.8856,46.69237,46.69237,0,0,1-3.9688,5.4265,40.92336,40.92336,0,0,0-3.9759,5.5154,15.20269,15.20269,0,0,0-1.8611,5.2557,9.67286,9.67286,0,0,0,.1528,3.7564,6.55767,6.55767,0,0,0,.3322.968C409.69369,221.3017,409.75129,221.4096,409.76909,221.4025Z" transform="translate(-29.9357 -45.42629)"/><path class="cls-1" d="M430.101,173.9452c0-.3938.19689-6.9011.32809-8.6075a8.77159,8.77159,0,0,1,.8938-3.0855,2.61859,2.61859,0,0,1,4.0793-.7222l.1462.1323a11.47765,11.47765,0,0,1,3.2159-3.8722c1.9033-1.247,3.4785-2.1002,5.1192-1.1158a2.826,2.826,0,0,1,1.5752,2.3628s2.42831-.3282,3.4784.6563,0,3.9378,0,3.9378,2.16591-.6563,2.69091.9189a4.35537,4.35537,0,0,1-.45941,3.2159s1.70641.5251,1.9033,1.7721-1.7064,2.6252-1.7064,2.6252l-5.9249,4.7136a11.255,11.255,0,0,1-4.5739,6.0456C436.74689,184.5103,430.101,173.9452,430.101,173.9452Z" transform="translate(-29.9357 -45.42629)"/><path d="M434.61519,166.9066c.06381.0268.0535.2508-.1205.5569a2.10057,2.10057,0,0,1-2.4018.924c-.3343-.1106-.4921-.2699-.4627-.3326.0559-.1379.8134.1047,1.6303-.2162C434.08149,167.5294,434.48129,166.8417,434.61519,166.9066Z" transform="translate(-29.9357 -45.42629)"/><path d="M439.31789,161.0882c-.0873.1169-.6535-.2766-.7581-1.0544-.1093-.7773.3299-1.309.4454-1.2199.1321.0741-.007.5643.08281,1.1473C439.15879,160.5466,439.42509,160.9812,439.31789,161.0882Z" transform="translate(-29.9357 -45.42629)"/><path d="M449.232,163.6189c.04809.0496-.42451.6081-1.31571,1.3768a37.09,37.09,0,0,1-3.6885,2.7074,5.71037,5.71037,0,0,1-2.3575,1.0951,2.13984,2.13984,0,0,1-2.0422-.7446,1.49583,1.49583,0,0,1-.1604-1.4595c.1641-.3264.3669-.4016.3802-.3778.0306.0318-.1081.1605-.1858.4505a1.34809,1.34809,0,0,0,.267,1.1598,1.79343,1.79343,0,0,0,1.6716.4852,5.70731,5.70731,0,0,0,2.1314-1.0524c1.484-.9824,2.8166-1.8702,3.7498-2.559A9.45321,9.45321,0,0,1,449.232,163.6189Z" transform="translate(-29.9357 -45.42629)"/><path d="M451.13139,167.7949a37.87464,37.87464,0,0,1-5.6538,2.8715,5.72307,5.72307,0,0,1-2.4498.7194,1.93378,1.93378,0,0,1-1.8365-1.092,1.1381,1.1381,0,0,1-.0091-.8804,1.04409,1.04409,0,0,1,.4272-.4922c.326-.1789.5391-.0825.5272-.0579.0012.0444-.1897.0386-.4075.2275a.85441.85441,0,0,0-.1932,1.05,1.56528,1.56528,0,0,0,1.4932.7538,5.75136,5.75136,0,0,0,2.2273-.7133A37.88507,37.88507,0,0,1,451.13139,167.7949Z" transform="translate(-29.9357 -45.42629)"/><path d="M448.25409,173.1236c.02691.0604-.3196.302-.9746.4652a4.46058,4.46058,0,0,1-1.1758.1234,3.17044,3.17044,0,0,1-1.472-.3339.89716.89716,0,0,1-.434-.8493,1.46722,1.46722,0,0,1,.3251-.7293,4.75365,4.75365,0,0,1,.8473-.8271c.5385-.4022.9378-.53.9704-.4703.04.0676-.2818.3081-.7221.754a6.66544,6.66544,0,0,0-.69739.8312c-.22651.3353-.31.6686-.00091.8423a3.27755,3.27755,0,0,0,1.2106.2918,5.96968,5.96968,0,0,0,1.0859-.0046C447.83829,173.1587,448.22479,173.0489,448.25409,173.1236Z" transform="translate(-29.9357 -45.42629)"/><path class="cls-5" d="M442.62329,174.1142a4.84746,4.84746,0,1,0-6.1445,4.4877l-.0506,1.3479,1.3214.9948-1.3878.775-.0633,1.6865,1.32151.9948-1.38781.775-.0544,1.4496.8053.6063-.8458.4723-.0316.8437,1.0035,1.1403,2.0049-1.1909.3762-10.0282A4.84866,4.84866,0,0,0,442.62329,174.1142Zm-4.71129-3.7216a1.39053,1.39053,0,1,1-1.44171,1.3374A1.3905,1.3905,0,0,1,437.912,170.3926Z" transform="translate(-29.9357 -45.42629)"/><path class="cls-16" d="M442.62329,174.1142a4.84746,4.84746,0,1,0-6.1445,4.4877l-.0506,1.3479,1.3214.9948-1.3878.775-.0633,1.6865,1.32151.9948-1.38781.775-.0544,1.4496.8053.6063-.8458.4723-.0316.8437,1.0035,1.1403,2.0049-1.1909.3762-10.0282A4.84866,4.84866,0,0,0,442.62329,174.1142Zm-4.71129-3.7216a1.39053,1.39053,0,1,1-1.44171,1.3374A1.3905,1.3905,0,0,1,437.912,170.3926Z" transform="translate(-29.9357 -45.42629)"/><path class="cls-5" d="M437.912,170.3926c.00019.0127-.12411.004-.336.0538a1.38692,1.38692,0,0,0-.75611.4808,1.33814,1.33814,0,1,0,2.141.0802,1.387,1.387,0,0,0-.71789-.536c-.20751-.0655-.33211-.0662-.331-.0788a.24985.24985,0,0,1,.08959-.0044,1.07415,1.07415,0,0,1,.2546.0379,1.38478,1.38478,0,0,1,.7747.532,1.43368,1.43368,0,0,1-.3585,2.023,1.43712,1.43712,0,0,1-1.7127-.0643,1.43361,1.43361,0,0,1-.2058-2.044,1.38325,1.38325,0,0,1,.8123-.4725,1.06906,1.06906,0,0,1,.25681-.0188A.24877.24877,0,0,1,437.912,170.3926Z" transform="translate(-29.9357 -45.42629)"/><path class="cls-5" d="M442.62319,174.1142s.001.0326-.0021.0967l-.0173.2854a5.07137,5.07137,0,0,1-.2447,1.0844,4.88042,4.88042,0,0,1-2.8559,2.9226l.0236-.0329c-.0925,2.5894-.2155,6.0338-.3583,10.0288l-.001.0296-.0256.0152c-.62889.3744-1.3084.7789-2.0038,1.1929l-.0404.024-.0311-.0353c-.3131-.3553-.6565-.7448-1.0043-1.1395l-.01529-.0173.00089-.0232c.0096-.2619.0203-.5518.031-.8437l.0013-.0328.0286-.016c.2634-.1472.5534-.3095.8455-.4728l-.0067.0985c-.2515-.1892-.52759-.3968-.8055-.6058l-.0249-.0187.0012-.0311c.0169-.4556.0353-.9504.0538-1.4496l.0013-.0337.0294-.0164c.438-.2447.9109-.5089,1.3876-.7753l-.0068.1009c-.4189-.3153-.8686-.6537-1.3215-.9947l-.0253-.019.0012-.0316.0167-.447q.02355-.6234.0466-1.2395l.0013-.034.0297-.0165q.7-.39075,1.3879-.7748l-.0069.1007q-.66735-.50265-1.3211-.9952l-.025-.0188.0012-.0312q.0258-.6807.0512-1.3478l.0432.0592a4.94666,4.94666,0,0,1-2.003-1.1207,4.702,4.702,0,0,1-.73389-.8519,4.76008,4.76008,0,0,1-.51451-.9752,4.88356,4.88356,0,0,1,8.281-4.9325,4.79121,4.79121,0,0,1,.9304,1.707l.0578.1859.0378.1793c.0223.1161.0513.2231.06351.3247.01839.204.04689.3753.04639.5148l-.0012.3166c-.0008.0711-.004.1073-.004.1073s-.004-.0364-.0067-.1075l-.0094-.3154c-.0028-.1388-.0347-.3088-.0562-.5109-.0138-.1007-.0442-.2067-.068-.3215l-.0398-.1773-.0596-.1837a4.85407,4.85407,0,0,0-3.0476-3.1149,4.8026,4.8026,0,0,0-6.0198,6.2873,4.65285,4.65285,0,0,0,.5042.9518,4.58865,4.58865,0,0,0,.718.831,4.8334,4.8334,0,0,0,1.9563,1.0918l.045.0129-.0017.0463q-.02475.66705-.05,1.3479l-.0237-.0499q.65371.49185,1.3216.9944l.0739.0556-.08069.0451q-.68777.38415-1.38771.7752l.0309-.0505q-.023.61575-.0464,1.2394l-.01679.447-.024-.0506c.45289.3411.90239.6796,1.32119.9949l.0741.0558-.0809.0452c-.4769.2661-.9499.5301-1.388.7746l.0307-.0501c-.0189.4992-.0377.994-.0549,1.4496l-.0237-.0497c.2778.2093.5536.4172.805.6066l.0724.0545-.0791.0441c-.2923.163-.5825.3249-.846.4719l.0299-.0488c-.0112.2919-.0222.5818-.0322.8437l-.0144-.0404c.3473.3953.69.7853,1.0026,1.1411l-.0715-.0113c.6962-.4127,1.3765-.8159,2.006-1.1891l-.0266.0448c.157-3.9944.29241-7.4384.3941-10.0274l.001-.0243.0227-.0086a4.85886,4.85886,0,0,0,2.8447-2.8674,5.3493,5.3493,0,0,0,.2617-1.0734l.0271-.2837C442.61739,174.1466,442.62319,174.1142,442.62319,174.1142Z" transform="translate(-29.9357 -45.42629)"/><path d="M442.12009,173.8386a4.84745,4.84745,0,1,0-6.1444,4.4877l-.0001.0019-.0505,1.346,1.3214.9948-1.3878.775-.0633,1.6865,1.3215.9948-1.38789.775-.05441,1.4496.80541.6062-.84581.4724-.0317.8437,1.0036,1.1403,2.0048-1.1909.3763-10.0282A4.84854,4.84854,0,0,0,442.12009,173.8386Zm-4.7112-3.7216a1.39053,1.39053,0,1,1-1.4417,1.3374A1.3905,1.3905,0,0,1,437.40889,170.117Z" transform="translate(-29.9357 -45.42629)"/><path class="cls-16" d="M442.12009,173.8386a4.84745,4.84745,0,1,0-6.1444,4.4877l-.0001.0019-.0505,1.346,1.3214.9948-1.3878.775-.0633,1.6865,1.3215.9948-1.38789.775-.05441,1.4496.80541.6062-.84581.4724-.0317.8437,1.0036,1.1403,2.0048-1.1909.3763-10.0282A4.84854,4.84854,0,0,0,442.12009,173.8386Zm-4.7112-3.7216a1.39053,1.39053,0,1,1-1.4417,1.3374A1.3905,1.3905,0,0,1,437.40889,170.117Z" transform="translate(-29.9357 -45.42629)"/><path class="cls-5" d="M437.40889,170.117c.0002.0126-.1241.004-.336.0538a1.3866,1.3866,0,0,0-.7561.4808,1.33811,1.33811,0,1,0,2.141.0802,1.387,1.387,0,0,0-.7179-.536c-.2075-.0655-.3321-.0662-.331-.0788a.24961.24961,0,0,1,.0896-.0044,1.07415,1.07415,0,0,1,.2546.0379,1.38429,1.38429,0,0,1,.7746.532,1.43357,1.43357,0,0,1-.3584,2.023,1.43691,1.43691,0,0,1-1.7127-.0644,1.43355,1.43355,0,0,1-.2059-2.0439,1.38373,1.38373,0,0,1,.8124-.4725,1.069,1.069,0,0,1,.2568-.0188A.24927.24927,0,0,1,437.40889,170.117Z" transform="translate(-29.9357 -45.42629)"/><path class="cls-5" d="M442.12009,173.8386s.001.0326-.0022.0967l-.0172.2854a5.07184,5.07184,0,0,1-.24469,1.0844,4.88056,4.88056,0,0,1-2.85591,2.9226l.0236-.0329c-.0925,2.5894-.2155,6.0338-.3583,10.0288l-.001.0296-.0256.0152c-.6289.3744-1.3084.7789-2.00379,1.1929l-.04041.024-.0311-.0353c-.3132-.3553-.65649-.7448-1.0044-1.1395l-.0152-.0173.0008-.0232c.0097-.2619.0204-.5518.0311-.8437l.00121-.0328.02869-.016c.2634-.1473.5534-.3094.8455-.4728l-.0067.0985c-.2516-.1892-.5276-.3968-.8056-.6058l-.0248-.0187.0012-.0311c.0169-.4556.0353-.9504.0538-1.4496l.0013-.0336.0294-.0165c.438-.2448.9108-.5089,1.3876-.7753l-.0069.1008c-.4189-.3152-.86849-.6536-1.3214-.9945l-.0253-.0191.00121-.0316.01669-.4471q.0234-.62325.0466-1.2394l.0013-.034.0296-.0165q.7-.39075,1.3879-.7748l-.0068.1007q-.66735-.50265-1.3211-.9952l-.025-.0188.0012-.0312q.0258-.6807.0511-1.3478l.0433.0592a4.94672,4.94672,0,0,1-2.003-1.1207,4.70245,4.70245,0,0,1-.7339-.8519,4.76053,4.76053,0,0,1-.5145-.9752,4.88356,4.88356,0,0,1,8.281-4.9325,4.79137,4.79137,0,0,1,.9304,1.707l.0578.1859.0377.1793c.0224.1161.0514.2231.0636.3247.0184.204.0469.3752.0464.5148l-.0012.3166c-.0008.0711-.004.1073-.004.1073s-.004-.0364-.0067-.1075l-.00939-.3154c-.00281-.1388-.03471-.3087-.05621-.5109-.01379-.1007-.0442-.2067-.068-.3215l-.03979-.1773-.05971-.1837a4.85356,4.85356,0,0,0-3.0475-3.1149,4.80259,4.80259,0,0,0-6.01979,6.2873,4.64743,4.64743,0,0,0,.50419.9518,4.58865,4.58865,0,0,0,.718.831,4.83268,4.83268,0,0,0,1.9563,1.0918l.045.0129-.0017.0463q-.02475.66705-.05,1.3479l-.02379-.0499q.65383.49185,1.32169.9944l.0739.0556-.0807.0451q-.68775.384-1.3877.7751l.0309-.0504q-.0231.6156-.0464,1.2394c-.0058.1531-.0115.306-.0168.447l-.024-.0506c.4528.3411.9024.6796,1.3212.9949l.0741.0558-.081.0452-1.3879.7746.03071-.0501c-.019.4992-.03771.994-.055,1.4496l-.02361-.0497c.2778.2093.55361.4172.805.6066l.0724.0545-.0791.0441c-.2923.1631-.5825.3249-.846.4719l.0298-.0488c-.0111.2919-.0222.5818-.0322.8437l-.01429-.0404c.34719.3952.69.7853,1.00259,1.1411l-.0715-.0113c.6962-.4127,1.3765-.8159,2.006-1.1891l-.0266.0448c.157-3.9944.2923-7.4384.3941-10.0274l.001-.0243.0226-.0086a4.85875,4.85875,0,0,0,2.84481-2.8674,5.34982,5.34982,0,0,0,.26169-1.0734l.0271-.2837C442.11419,173.8709,442.12009,173.8386,442.12009,173.8386Z" transform="translate(-29.9357 -45.42629)"/><path class="cls-5" d="M441.53789,173.8842a6.60421,6.60421,0,0,0-.1173-1.0413,4.08152,4.08152,0,0,0-.4335-1.1427,4.22168,4.22168,0,0,0-4.9988-1.9824,3.956,3.956,0,0,0-1.0856.5336,3.85152,3.85152,0,0,0-.9222.8603,4.18987,4.18987,0,0,0-.1868,4.9706,4.78178,4.78178,0,0,0,.3936.5034,4.72606,4.72606,0,0,0,.46171.4238,3.95546,3.95546,0,0,0,1.04269.6137,4.23362,4.23362,0,0,0,5.1335-1.6026,4.08113,4.08113,0,0,0,.5177-1.1069,6.62162,6.62162,0,0,0,.195-1.0295.29043.29043,0,0,1,.00011.0693l-.01191.2032a1.96807,1.96807,0,0,1-.04.3286,3.01325,3.01325,0,0,1-.0979.4416,4.03536,4.03536,0,0,1-.50619,1.1305,4.30176,4.30176,0,0,1-2.971,1.9348,4.32316,4.32316,0,0,1-2.26131-.2657,4.0552,4.0552,0,0,1-1.0729-.6267,3.95325,3.95325,0,0,1-.8812-.9509,4.2987,4.2987,0,0,1,.192-5.111,3.95784,3.95784,0,0,1,.9498-.8819,4.06,4.06,0,0,1,1.1168-.5445,4.32354,4.32354,0,0,1,2.2746-.0954,4.30149,4.30149,0,0,1,2.8177,2.1517,4.03582,4.03582,0,0,1,.4202,1.1653,3.018,3.018,0,0,1,.0646.4478,1.9708,1.9708,0,0,1,.0153.3307l-.0034.2036A.28745.28745,0,0,1,441.53789,173.8842Z" transform="translate(-29.9357 -45.42629)"/><path class="cls-5" d="M438.97279,171.584c-.0134.0003-.00179-.1455-.0591-.3948a1.62536,1.62536,0,0,0-.5629-.8912,1.584,1.584,0,0,0-1.4876-.2729,1.55817,1.55817,0,0,0-.7488.5225,1.56723,1.56723,0,0,0-.0698,1.8556,1.55873,1.55873,0,0,0,.7077.5772,1.58364,1.58364,0,0,0,1.5039-.1607,1.62477,1.62477,0,0,0,.6281-.8465c.0758-.2443.0751-.3905.0885-.3892a.33909.33909,0,0,1,.003.1048,1.27147,1.27147,0,0,1-.0462.2976,1.62264,1.62264,0,0,1-.6241.9033,1.65045,1.65045,0,0,1-.7137.2943,1.679,1.679,0,0,1-.8814-.1002,1.661,1.661,0,0,1-.7639-.614,1.67567,1.67567,0,0,1,.075-1.996,1.66142,1.66142,0,0,1,.8076-.5549,1.67937,1.67937,0,0,1,.8864-.0339,1.64964,1.64964,0,0,1,.6897.3469,1.62249,1.62249,0,0,1,.5546.9475,1.27578,1.27578,0,0,1,.0239.3002A.33952.33952,0,0,1,438.97279,171.584Z" transform="translate(-29.9357 -45.42629)"/><path class="cls-5" d="M438.00139,188.4491c-.03339-.0013.0252-2.2857.1308-5.1019.1057-2.8171.2184-5.099.25181-5.0978s-.02511,2.2853-.13081,5.1024C438.14749,186.1679,438.03479,188.4503,438.00139,188.4491Z" transform="translate(-29.9357 -45.42629)"/><path d="M437.82809,170.5968a.69912.69912,0,0,1-.6493,0l-.0001-6.1459.64831.0448Z" transform="translate(-29.9357 -45.42629)"/><path d="M437.50319,170.7018a.74774.74774,0,0,1-.3349-.082l-.015-.007-.001-6.1894.7008.0485.001,6.1409-.015.007A.7518.7518,0,0,1,437.50319,170.7018Zm-.2979-.121a.667.667,0,0,0,.5969,0l-.001-6.0609-.5969-.0415Z" transform="translate(-29.9357 -45.42629)"/><path class="cls-1" d="M435.03829,161.4283a14.99222,14.99222,0,0,0,1.7353,1.2732,2.29791,2.29791,0,0,1,1.05341,1.7854,2.16136,2.16136,0,0,1-1.28111,1.6889,4.04895,4.04895,0,0,1-5.4165-1.624" transform="translate(-29.9357 -45.42629)"/><path class="cls-1" d="M431.12939,164.5518a10.17662,10.17662,0,0,0,1.3584,1.2147,3.94552,3.94552,0,0,0,4.0427.1135,1.69836,1.69836,0,0,0,1.0171-1.7387,2.74659,2.74659,0,0,0-1.11159-1.4523c-.94451-.6435-1.47541-1.2001-1.39771-1.2607.0475-.0282.5911.37,1.6135.9515a2.969,2.969,0,0,1,1.374,1.6486,1.76733,1.76733,0,0,1-.2091,1.3435,2.82385,2.82385,0,0,1-1.0193.9696,4.24011,4.24011,0,0,1-2.5539.5172,4.02971,4.02971,0,0,1-1.9696-.7817C431.30269,165.3274,431.07659,164.563,431.12939,164.5518Z" transform="translate(-29.9357 -45.42629)"/><path class="cls-1" d="M441.15739,158.8795a24.19938,24.19938,0,0,0-2.9909,4.3978,3.692,3.692,0,0,0-.4491,1.5772,1.57036,1.57036,0,0,0,.7344,1.3934,1.59143,1.59143,0,0,0,1.3637-.0062,4.262,4.262,0,0,0,1.1427-.8167,27.51528,27.51528,0,0,0,3.722-4.1326,4.284,4.284,0,0,0,.6636-1.1728,1.62627,1.62627,0,0,0-.0852-1.3106" transform="translate(-29.9357 -45.42629)"/><path class="cls-1" d="M445.25849,158.809c.0169-.022.2552.2055.2853.7455a3.2922,3.2922,0,0,1-.8213,1.9981,23.80709,23.80709,0,0,1-1.9819,2.4613c-.402.4393-.8407.885-1.3108,1.3308a4.97891,4.97891,0,0,1-1.697,1.2132,1.88364,1.88364,0,0,1-1.1564.0287,1.52561,1.52561,0,0,1-.8742-.748,2.41476,2.41476,0,0,1-.0394-2.0022,12.76137,12.76137,0,0,1,1.5939-2.7622,11.77048,11.77048,0,0,1,1.9007-2.1946,23.1221,23.1221,0,0,1-1.5908,2.4093,14.1712,14.1712,0,0,0-1.4401,2.7099,1.94129,1.94129,0,0,0,.0339,1.5891,1.1015,1.1015,0,0,0,1.40561.4636,4.6968,4.6968,0,0,0,1.50679-1.0881c.4666-.4329.9049-.8633,1.3096-1.2857a30.3712,30.3712,0,0,0,2.0369-2.3492,3.36305,3.36305,0,0,0,.917-1.7773A3.47993,3.47993,0,0,0,445.25849,158.809Z" transform="translate(-29.9357 -45.42629)"/></g><g id="Plant"><path class="cls-1" d="M83.6568,342.4561c9.5174-14.5576,9.151-35.8365-2.216-49.0008-3.5282-4.086-8.4591-7.6376-13.8379-7.177-5.5075.4714-9.9447,5.1948-11.6204,10.4624-1.6756,5.2674-1.0946,10.9742-.1102,16.4133,1.3783,7.6158,3.6861,15.4082,8.969,21.0642,5.2828,5.6562,12.0236,11.9487,18.8155,8.2379" transform="translate(-29.9357 -45.42629)"/><path class="cls-1" d="M79.415,412.0441a21.7529,21.7529,0,0,0-6.0646-24.7047c-2.188-1.7855-5.0502-3.1685-7.7799-2.4438-2.7947.7419-4.6528,3.5776-5.0388,6.4433a17.91425,17.91425,0,0,0,1.4305,8.4664c1.4001,3.7989,3.2954,7.6045,6.5297,10.0398,3.2343,2.4355,7.7602,4.7263,10.9231,2.199" transform="translate(-29.9357 -45.42629)"/><path class="cls-1" d="M102.3666,407.047c-2.6169-12.9058,4.1848-27.1467,15.8679-33.2225,3.6263-1.8859,8.0897-3.003,11.7443-1.1724,3.7418,1.8742,5.54,6.4397,5.2431,10.6142-.2967,4.1745-2.3039,8.026-4.5198,11.5763-3.1027,4.971-6.9089,9.8057-12.2092,12.3046s-12.3881,4.4125-16.1263-.1002" transform="translate(-29.9357 -45.42629)"/><path class="cls-1" d="M100.7175,372.1487c-4.5567-14.705,3.1693-32.5344,16.0464-40.971,3.997-2.6187,9.0576-4.4413,13.523-2.7403,4.5722,1.7415,7.1988,6.841,7.3429,11.7315s-1.7392,9.6056-3.9006,13.9949c-3.0262,6.1458-6.8865,12.2154-12.7588,15.7432s-15.376,7.0524-20.2529,2.2417" transform="translate(-29.9357 -45.42629)"/><path class="cls-1" d="M91.5656,444.0234a3.20427,3.20427,0,0,0,.1489-.712c.0798-.5355.1811-1.2148.3058-2.0512q.09435-.67965.2061-1.4825.1569-.814.337-1.7488c.2392-1.2548.4866-2.6878.8979-4.2431q.2838-1.17435.5928-2.4514.37065-1.26465.7692-2.6235c.4905-1.8255,1.2152-3.7128,1.8941-5.7244a100.2938,100.2938,0,0,1,13.0298-24.278c1.3011-1.678,2.4737-3.3252,3.7239-4.7432q.9114-1.0821,1.7613-2.0912.89265-.96225,1.7151-1.8491c1.069-1.2023,2.1262-2.2005,3.0398-3.0932q.67875-.6666,1.2708-1.2475.6072-.5367,1.1214-.9911c.6282-.5661,1.1381-1.026,1.5403-1.3883a3.19626,3.19626,0,0,0,.5108-.5177,3.15715,3.15715,0,0,0-.5905.4205c-.4227.3399-.959.7711-1.6194,1.3022q-.5325.4371-1.1617.9538-.61005.5652-1.311,1.2145c-.9403.8726-2.0247,1.8541-3.1195,3.0429q-.8403.8775-1.7541,1.8319-.86685,1.0023-1.7985,2.0794c-1.2746,1.4121-2.4695,3.0565-3.7913,4.7359a95.99849,95.99849,0,0,0-13.1065,24.4208c-.6688,2.0294-1.3786,3.934-1.8508,5.7766q-.3825,1.3701-.7388,2.6479-.28995,1.28775-.557,2.4743c-.3855,1.5696-.6042,3.0157-.8115,4.2818q-.1536.9423-.2874,1.764-.0828.8097-.153,1.4954c-.0774.844-.1404,1.5294-.1901,2.0697A3.1605,3.1605,0,0,0,91.5656,444.0234Z" transform="translate(-29.9357 -45.42629)"/><path class="cls-1" d="M91.9019,446.666a1.04154,1.04154,0,0,0-.0003-.2934c-.0169-.229-.0375-.509-.0629-.8524q-.1104-1.19715-.3014-3.2672-.10545-1.07055-.2326-2.358c-.0652-.8635-.0885-1.8053-.1414-2.8149-.0752-2.0206-.2685-4.3175-.1973-6.8635q.0093-1.91.0193-3.9932c.0141-1.3881.1453-2.829.2157-4.3224.1-2.9919.5072-6.1638.8668-9.5066a136.16073,136.16073,0,0,1,12.3872-41.7742c1.521-2.9989,2.909-5.8804,4.4563-8.4432.7549-1.2906,1.4304-2.5701,2.1756-3.7416q1.1259-1.7502,2.1606-3.3583c1.3281-2.1734,2.7423-3.9934,3.9068-5.6462.5946-.8175,1.1274-1.5944,1.6529-2.2826q.8073-1.00905,1.4802-1.8499,1.28685-1.62915,2.0334-2.5743c.2084-.2742.3783-.4976.5172-.6804a1.03925,1.03925,0,0,0,.1603-.2456c-.0081-.0071-.0787.0621-.2085.204-.1517.1721-.3371.3825-.5645.6404q-.7794.9174-2.1266,2.5036-.6927.8262-1.5262,1.82c-.5406.679-1.0885,1.4473-1.698,2.2571-1.1944,1.6374-2.6379,3.4456-3.9944,5.6105q-1.0533,1.6014-2.2022,3.3484c-.7585,1.1691-1.4471,2.4473-2.2147,3.7373-1.5727,2.5619-2.9839,5.4459-4.5253,8.451a133.08115,133.08115,0,0,0-12.4398,41.9514c-.3459,3.3592-.7349,6.546-.8131,9.5509-.0596,1.5-.1791,2.9467-.1805,4.3403q.01095,2.08845.0208,4.0075c-.0429,2.5544.1815,4.8572.2903,6.8812.0695,1.0112.11,1.9541.1932,2.8181q.1566,1.28625.2872,2.3581.26475,2.0619.4181,3.2585c.0501.3404.091.6178.1243.8448A1.01565,1.01565,0,0,0,91.9019,446.666Z" transform="translate(-29.9357 -45.42629)"/><path class="cls-1" d="M67.124,303.8583a1.07372,1.07372,0,0,0,.1218.2716c.1098.2048.2444.4558.41.7642q.5952,1.06245,1.627,2.904c.3491.6322.7683,1.3177,1.1724,2.0981q.589,1.185,1.2734,2.5608.689,1.3794,1.4679,2.9391c.496,1.0518.9675,2.1886,1.4926,3.3677.5095,1.1861,1.0823,2.412,1.6091,3.7188q.76095,1.974,1.5801,4.0994.4089,1.06275.8311,2.1609.3771,1.11495.7659,2.264.7752,2.29935,1.5932,4.7268c2.0174,6.5235,3.9287,13.7883,5.543,21.5025,1.5628,7.7283,2.6598,15.1619,3.4692,21.9447.694,6.7944,1.2072,12.9295,1.3473,18.0952.1309,2.581.1576,4.9175.1658,6.9704.0334,2.0528.0408,3.8208-.0074,5.2654q-.02955,2.1084-.0468,3.329c.0015.3499.0027.6347.0036.8669a1.06522,1.06522,0,0,0,.0225.2964,1.0507,1.0507,0,0,0,.041-.2934c.0157-.2315.0349-.5155.0585-.8644q.0597-1.21755.1637-3.3282c.0857-1.4456.1136-3.2157.1135-5.2719.0248-2.0563.0289-4.3979-.074-6.9847-.0839-5.178-.5524-11.3297-1.2169-18.1436-.7798-6.8021-1.8624-14.2578-3.4293-22.0071-1.6186-7.7352-3.5527-15.0177-5.6065-21.5514q-.83265-2.4285-1.6231-4.7335-.3969-1.1496-.7824-2.2658-.43125-1.0983-.849-2.1623-.83835-2.12325-1.6184-4.099c-.5403-1.306-1.1273-2.531-1.6512-3.7148-.5396-1.1772-1.0261-2.3108-1.5374-3.3591q-.8031-1.5513-1.5154-2.9268-.7095-1.3647-1.3223-2.5433c-.4206-.7739-.857-1.4525-1.2229-2.0769q-1.09605-1.80465-1.7307-2.8495c-.1868-.2955-.3391-.5361-.4631-.7322A1.04107,1.04107,0,0,0,67.124,303.8583Z" transform="translate(-29.9357 -45.42629)"/><path class="cls-1" d="M70.3582,393.1842a12.85955,12.85955,0,0,0,1.0121,1.7765c.6961,1.1126,1.6517,2.756,2.7717,4.8149,1.1299,2.0546,2.359,4.5627,3.6055,7.3983a100.69853,100.69853,0,0,1,3.4986,9.4442,100.5991,100.5991,0,0,1,2.4392,9.7739c.5704,3.0449.9703,5.8096,1.1964,8.1433.2365,2.3318.3745,4.2277.4272,5.5389a12.8634,12.8634,0,0,0,.1664,2.0376,12.8138,12.8138,0,0,0,.0762-2.0441c.0215-1.3169-.0494-3.2237-.231-5.5726a82.47116,82.47116,0,0,0-1.0708-8.209,92.03481,92.03481,0,0,0-2.4081-9.852,92.06571,92.06571,0,0,0-3.5683-9.4911,82.47749,82.47749,0,0,0-3.7462-7.3817c-1.1751-2.0419-2.1921-3.6567-2.9529-4.732A12.80173,12.80173,0,0,0,70.3582,393.1842Z" transform="translate(-29.9357 -45.42629)"/><polygon class="cls-12" points="80.323 392.045 38.515 392.045 43.573 434.745 75.115 434.745 80.323 392.045"/><polygon class="cls-5" points="78.797 430.136 75.246 434.745 43.573 434.745 39.921 430.284 78.797 430.136"/><path class="cls-4" d="M70.0794,450.0295c0,.1722,8.6761.3117,19.376.3117,10.7037,0,19.3779-.1395,19.3779-.3117,0-.1719-8.6742-.3116-19.3779-.3116C78.7555,449.7179,70.0794,449.8576,70.0794,450.0295Z" transform="translate(-29.9357 -45.42629)"/><path class="cls-4" d="M70.0794,452.8726c0,.172,8.6761.3116,19.376.3116,10.7037,0,19.3779-.1396,19.3779-.3116,0-.1722-8.6742-.3116-19.3779-.3116C78.7555,452.561,70.0794,452.7004,70.0794,452.8726Z" transform="translate(-29.9357 -45.42629)"/><path class="cls-4" d="M70.6012,455.6249c0,.1721,8.3722.3117,18.6976.3117,10.329,0,18.6994-.1396,18.6994-.3117s-8.3704-.3117-18.6994-.3117C78.9734,455.3132,70.6012,455.4528,70.6012,455.6249Z" transform="translate(-29.9357 -45.42629)"/><path class="cls-5" d="M103.8709,345.442a1.47476,1.47476,0,0,0,.0047.4076c.0259.3138.0574.6964.0956,1.1593.1082,1.0695.2536,2.5072.4303,4.2545.3816,3.5903.9378,8.5466,1.5782,14.0177.0246.2094.0491.4181.0717.6114l.0216.1842.1852.0029c5.3711.0828,10.2048.1347,13.6959.1516,1.6966-.0006,3.0907-.0011,4.1293-.0015.4466-.0086.8164-.0156,1.1207-.0214a.19729.19729,0,1,0,.0013-.0837c-.3039-.0155-.6733-.0342-1.1195-.0568-1.0379-.033-2.4314-.0774-4.1271-.1314-3.49-.0931-8.3229-.1935-13.6939-.2799l.2066.1869c-.0226-.1934-.0469-.4021-.0714-.6116-.6403-5.471-1.2437-10.4219-1.7014-14.0032-.2316-1.7409-.4221-3.1733-.5638-4.2389-.0697-.4592-.1273-.8388-.1746-1.15A1.49613,1.49613,0,0,0,103.8709,345.442Z" transform="translate(-29.9357 -45.42629)"/><path class="cls-5" d="M113.377,332.673a1.56221,1.56221,0,0,0-.0325.4186c-.0028.3225-.0063.7183-.0104,1.1986.01,1.1041.0237,2.594.0403,4.4062.0526,3.7202.1545,8.8587.2932,14.5333.0056.2297.0113.4585.0165.6705l.0055.2231.2223-.0173a130.48627,130.48627,0,0,1,14.057-.3174c1.7923.0554,3.2392.1286,4.2383.1817.4602.0219.84.0399,1.1506.0547a.20282.20282,0,1,0,.0073-.0834c-.2613-.0341-.6469-.0844-1.1455-.1324-.9968-.1029-2.4435-.2212-4.2387-.3149a110.92767,110.92767,0,0,0-14.1016.19l.2276.2056c-.0051-.2121-.0106-.4408-.0162-.6705-.1387-5.6746-.288-10.8119-.4171-14.5303-.0719-1.8109-.1311-3.2997-.1749-4.403-.0276-.4795-.0504-.8746-.0689-1.1966A1.581,1.581,0,0,0,113.377,332.673Z" transform="translate(-29.9357 -45.42629)"/><path class="cls-5" d="M124.5031,328.3224a7.5017,7.5017,0,0,0-.2598,1.2262c-.1597.8651-.3683,1.9957-.6203,3.3609-.5424,2.8372-1.388,6.7493-2.5835,11.0307l-.1257.4503.4243-.2045c.1586-.0763.3298-.1588.5015-.2416a35.99576,35.99576,0,0,1,11.1434-3.2595c1.483-.1825,2.6929-.2502,3.5296-.2804a8.71086,8.71086,0,0,0,1.3022-.0713,1.0323,1.0323,0,0,0-.336-.0473c-.2209-.0137-.547-.0421-.9676-.0461a29.93215,29.93215,0,0,0-3.5614.1477,33.88059,33.88059,0,0,0-11.2937,3.1756l-.5077.2449.2986.2457a107.15375,107.15375,0,0,0,2.4657-11.0923c.2358-1.4288.3964-2.5871.4904-3.3889A7.01088,7.01088,0,0,0,124.5031,328.3224Z" transform="translate(-29.9357 -45.42629)"/><path class="cls-5" d="M65.465,406.1689c.0078.0645,1.2124-.059,3.1618-.1363a53.27078,53.27078,0,0,1,7.6034.248c.6004.0625,1.1877.1381,1.7491.2145l.2002.0272.0351-.1966c.4513-2.5276.8303-4.7563,1.0836-6.3555a17.469,17.469,0,0,0,.3291-2.5781,17.44988,17.44988,0,0,0-.5998,2.5289c-.326,1.5859-.756,3.8054-1.2237,6.3301l.2351-.1692c-.5659-.0809-1.1583-.1591-1.7642-.2222a42.66307,42.66307,0,0,0-7.6649-.1258c-.9787.0755-1.7669.1753-2.3095.256A3.26521,3.26521,0,0,0,65.465,406.1689Z" transform="translate(-29.9357 -45.42629)"/><path class="cls-5" d="M61.5157,398.3228c.0159.0666,1.1707-.2049,3.0628-.4387a33.28768,33.28768,0,0,1,7.4187-.074c.45.0459.8916.1048,1.3101.1624l.218.03.0218-.2161c.2633-2.5991.4769-4.9024.6113-6.5573a17.97591,17.97591,0,0,0,.1358-2.667,17.99676,17.99676,0,0,0-.4152,2.638c-.2086,1.6472-.473,3.9452-.7495,6.5429l.2396-.1858c-.424-.0606-.8717-.1214-1.328-.1681a28.83555,28.83555,0,0,0-7.5045.1987c-.95.1542-1.7087.3304-2.2283.4672A3.077,3.077,0,0,0,61.5157,398.3228Z" transform="translate(-29.9357 -45.42629)"/><path class="cls-5" d="M58.6834,323.9892a1.95888,1.95888,0,0,0,.4149.2161l1.2212.5432c1.1213.4776,2.6526,1.1296,4.5213,1.9253,3.8818,1.6079,9.1529,3.7912,14.9772,6.2037.277.1134.5528.2264.8087.3312l.1904.0779.0828-.1872c2.4726-5.5842,4.6947-10.6028,6.3277-14.2908.7702-1.7874,1.4003-3.2496,1.8623-4.3217.1967-.478.3574-.8683.486-1.1806a1.81536,1.81536,0,0,0,.1435-.4227,1.82394,1.82394,0,0,0-.2196.3887c-.1473.3038-.3315.6836-.557,1.1487-.492,1.0587-1.163,2.5025-1.9834,4.2676-1.6633,3.6742-3.9268,8.6744-6.4454,14.2379l.2731-.1092c-.2559-.1048-.5316-.2179-.8087-.3314-5.8425-2.3679-11.1301-4.5109-15.0241-6.089-1.8898-.7443-3.4384-1.3542-4.5723-1.8007-.5076-.1906-.9216-.346-1.2514-.4699A1.95,1.95,0,0,0,58.6834,323.9892Z" transform="translate(-29.9357 -45.42629)"/><path class="cls-5" d="M55.0208,305.9298a1.89024,1.89024,0,0,0,.3675.271c.2892.1868.6519.4211,1.0968.7084,1.0114.6305,2.393,1.4916,4.0818,2.5442,3.5167,2.1444,8.3019,5.0622,13.6179,8.3036l.2177.1327.0904-.2413c.078-.2077.1621-.4319.2465-.6569,2.2197-5.9895,4.2282-11.4089,5.7065-15.3979.6962-1.9364,1.2666-3.5227,1.6837-4.6827.1777-.5201.3225-.9438.4376-1.2805a1.98586,1.98586,0,0,0,.1255-.4564,2.01774,2.01774,0,0,0-.2056.4271c-.1347.3296-.3042.7443-.5123,1.2533-.4483,1.1486-1.0615,2.7192-1.81,4.6366-1.5086,3.978-3.558,9.3823-5.823,15.3553-.0844.2251-.1684.4494-.2462.657l.308-.1084c-5.3419-3.1987-10.1504-6.0779-13.6841-8.1939-1.7174-1.0056-3.1223-1.8282-4.1507-2.4303-.4613-.2603-.8374-.4724-1.1372-.6416A1.89667,1.89667,0,0,0,55.0208,305.9298Z" transform="translate(-29.9357 -45.42629)"/><path class="cls-5" d="M56.221,296.2935a5.81977,5.81977,0,0,0,.8974.5298c.5876.3247,1.4371.8033,2.4682,1.4428a44.093,44.093,0,0,1,7.5773,5.9291l.524.5132-.1753-.7151c-.1833-.7473-.3521-1.536-.4816-2.347a27.25427,27.25427,0,0,1,.5911-11.1412,31.87047,31.87047,0,0,1,1.0708-3.2408,7.82337,7.82337,0,0,0,.4469-1.1765,6.65854,6.65854,0,0,0-.5983,1.1115,24.51,24.51,0,0,0-1.2076,3.2252,26.07805,26.07805,0,0,0-.721,11.288c.1317.8244.3049,1.6261.4945,2.3852l.3486-.2019a39.93692,39.93692,0,0,0-7.7267-5.8672c-1.0573-.6118-1.9315-1.055-2.5424-1.3393A5.05838,5.05838,0,0,0,56.221,296.2935Z" transform="translate(-29.9357 -45.42629)"/><path class="cls-5" d="M103.927,390.0351a5.9716,5.9716,0,0,0,.1919,1.0805c.1458.6905.355,1.6915.5834,2.9379a72.23344,72.23344,0,0,1,1.1229,9.902l.0081.1902.1903.0116c.2974.018.6159.0374.9369.0569,4.1455.2502,7.8994.453,10.6178.5787,1.2988.0512,2.3807.0938,3.2206.1269a6.34773,6.34773,0,0,0,1.1843-.0111,6.36726,6.36726,0,0,0-1.1744-.1534c-.8377-.0681-1.917-.1558-3.2124-.2612-2.7139-.2022-6.465-.4521-10.6104-.7023-.321-.0193-.6395-.0384-.937-.0562l.1982.2016a60.95793,60.95793,0,0,0-1.2602-9.94c-.2667-1.2447-.52-2.239-.7138-2.9195A5.40545,5.40545,0,0,0,103.927,390.0351Z" transform="translate(-29.9357 -45.42629)"/><path class="cls-5" d="M112.142,378.2563a5.71346,5.71346,0,0,0,.0693,1.0901c.0883.7749.2017,1.7711.3382,2.9709.304,2.5154.7536,6.0079,1.2812,9.9242l.023.1708.1734.0113,1.3455.0879c4.2479.2884,8.0789.7266,10.846,1.0872,1.3241.1776,2.4256.3253,3.2767.4394a6.80566,6.80566,0,0,0,1.2092.1224,6.57259,6.57259,0,0,0-1.1822-.2848c-.7668-.153-1.88-.3553-3.2612-.5732-2.7616-.4373-6.5991-.924-10.8595-1.2133-.4622-.0296-.9196-.0589-1.3494-.0864l.1962.1819c-.537-3.915-1.0363-7.4008-1.4149-9.906-.1886-1.1928-.3453-2.1832-.4671-2.9534A5.7,5.7,0,0,0,112.142,378.2563Z" transform="translate(-29.9357 -45.42629)"/><path class="cls-5" d="M121.8128,373.1846c-.0613.0149.1926,1.1479.4914,3.0142a53.90431,53.90431,0,0,1,.6722,7.3987l.0047.2348.2348-.0299c.2227-.0284.4611-.0588.7013-.0893a65.16459,65.16459,0,0,1,7.8966-.4685q1.41165.0159,2.4023.027a3.67324,3.67324,0,0,0,.8854-.0227,3.48833,3.48833,0,0,0-.8754-.1417c-.5665-.0597-1.3886-.1235-2.4069-.1617a50.732,50.732,0,0,0-7.9532.3474c-.242.0311-.4822.0621-.7065.0909l.2392.2048a43.23175,43.23175,0,0,0-.8089-7.441c-.1874-.9321-.3695-1.6765-.5118-2.1854A3.07737,3.07737,0,0,0,121.8128,373.1846Z" transform="translate(-29.9357 -45.42629)"/><path class="cls-5" d="M66.7325,384.9613a36.79437,36.79437,0,0,0,1.8656,4.2421,36.75621,36.75621,0,0,0,2.0115,4.1754,19.63366,19.63366,0,0,0-1.6271-4.3525A19.63038,19.63038,0,0,0,66.7325,384.9613Z" transform="translate(-29.9357 -45.42629)"/><path class="cls-5" d="M61.4774,390.5287a43.45592,43.45592,0,0,1,4.7517.963,43.44246,43.44246,0,0,1,4.4635,1.894,10.85725,10.85725,0,0,0-4.3382-2.2983A10.85869,10.85869,0,0,0,61.4774,390.5287Z" transform="translate(-29.9357 -45.42629)"/></g></svg>